<?xml version="1.0" encoding="utf-8"?>
<svg version="1.0" width="1465.000000pt" height="1600.000000pt" viewBox="0 0 1465.000000 1600.000000" preserveAspectRatio="xMidYMid meet" xmlns="http://www.w3.org/2000/svg">
  <g transform="translate(0.000000,1600.000000) scale(0.100000,-0.100000)" fill="#000000" stroke="none">
    <path d="M13870 15995 c0 -16 85 -174 105 -195 13 -14 27 -43 31 -65 4 -22 16 -56 27 -75 11 -19 35 -75 54 -125 19 -49 39 -95 45 -102 5 -6 34 -19 65 -29 37 -12 67 -29 87 -52 44 -49 103 -77 150 -73 35 3 38 1 34 -17 -6 -23 7 -37 66 -71 30 -17 48 -21 74 -16 23 4 32 3 27 -4 -3 -6 -1 -11 4 -11 8 0 11 131 11 420 l0 420 -390 0 c-214 0 -390 -2 -390 -5z m648 -161 c-11 -11 -18 -12 -22 -5 -4 6 0 11 8 11 9 0 16 5 16 12 0 6 3 8 7 4 4 -3 0 -14 -9 -22z m-38 -113 c0 -10 -42 -23 -49 -15 -7 6 20 24 37 24 6 0 12 -4 12 -9z" style="fill: rgb(255, 242, 0);"/>
    <path d="M5940 15725 c-52 -8 -131 -21 -175 -30 -44 -8 -165 -18 -270 -21 -203 -7 -187 -3 -321 -72 -64 -33 -127 -44 -279 -51 l-140 -6 -11 -100 c-12 -113 -27 -164 -60 -215 -87 -131 -110 -157 -197 -212 -29 -18 -55 -36 -58 -42 -7 -8 -192 -86 -252 -106 -15 -5 -50 -25 -77 -44 -60 -43 -215 -126 -236 -126 -8 0 -45 -15 -82 -34 -37 -18 -78 -37 -92 -41 -14 -4 -34 -15 -45 -24 -11 -10 -49 -30 -85 -46 -142 -61 -242 -115 -288 -155 -26 -23 -60 -49 -77 -57 -39 -20 -145 -104 -145 -114 0 -4 -26 -21 -57 -37 -118 -61 -146 -78 -167 -101 -11 -14 -50 -52 -85 -85 -36 -34 -72 -70 -80 -80 -9 -11 -43 -48 -76 -83 -33 -35 -73 -88 -90 -118 -16 -30 -50 -80 -75 -111 -25 -31 -54 -71 -65 -90 -11 -18 -41 -63 -66 -101 -25 -37 -71 -112 -103 -165 -32 -54 -61 -98 -65 -98 -3 0 -26 -18 -51 -41 -46 -41 -109 -79 -133 -79 -7 0 -31 -17 -53 -38 -33 -33 -43 -51 -58 -113 -20 -84 -96 -252 -130 -289 -36 -38 -52 -77 -87 -206 -41 -155 -77 -265 -94 -284 -8 -9 -30 -58 -50 -110 -20 -52 -42 -104 -49 -115 -8 -11 -24 -45 -36 -75 -12 -30 -31 -73 -41 -95 -10 -22 -34 -91 -54 -154 -20 -62 -67 -186 -104 -275 -96 -227 -131 -314 -131 -326 0 -7 -26 -64 -57 -128 -64 -131 -116 -275 -102 -280 6 -2 45 13 87 34 75 37 79 38 201 40 l125 2 60 86 c34 47 101 148 151 224 49 75 128 189 175 252 125 169 249 383 250 432 1 17 67 151 105 210 21 33 37 47 52 48 12 0 27 9 33 19 14 27 13 31 -6 24 -12 -4 -15 -1 -12 13 2 12 11 18 24 17 27 -3 101 68 148 142 21 33 42 62 45 65 4 3 18 21 31 40 61 90 192 258 224 289 20 19 36 42 36 50 0 10 -29 29 -78 51 -175 78 -264 236 -249 441 7 90 33 154 101 251 48 68 156 173 243 235 66 47 283 153 428 208 111 43 207 84 330 140 53 25 128 54 265 105 47 17 103 39 125 49 22 10 58 24 80 31 118 38 158 56 165 75 4 11 15 64 23 118 9 53 25 117 37 141 46 90 133 170 264 239 26 14 83 61 125 104 58 60 93 87 146 112 88 42 265 97 370 116 22 4 81 21 130 39 87 32 169 52 267 66 40 5 57 16 116 72 94 88 142 103 297 93 202 -14 313 -10 398 14 43 12 144 35 225 51 81 16 194 45 252 65 222 77 371 105 564 105 156 0 322 -37 367 -82 8 -8 53 -33 99 -55 143 -67 222 -172 244 -324 l11 -80 105 -49 c133 -62 312 -130 341 -130 22 0 34 -3 169 -38 41 -11 95 -23 119 -26 23 -4 57 -17 75 -30 83 -62 160 -82 232 -60 81 26 176 34 264 24 l82 -9 31 29 c18 17 36 30 40 30 5 0 20 9 34 20 15 11 64 32 110 47 76 23 95 25 190 20 58 -3 110 -10 116 -16 13 -13 27 -14 27 -2 0 4 -37 19 -82 32 -49 14 -122 45 -178 78 -134 77 -158 84 -285 87 -95 1 -125 6 -223 38 -62 19 -125 44 -140 54 -62 41 -142 62 -241 62 -49 0 -65 5 -101 31 -39 29 -131 75 -221 112 -20 8 -79 20 -130 27 -52 7 -101 16 -110 21 -9 4 -19 24 -22 44 -3 19 -15 49 -27 65 -39 54 -69 60 -317 60 l-225 0 -43 38 c-23 20 -72 52 -107 69 -36 18 -81 49 -101 69 -29 31 -46 39 -94 46 -32 5 -85 13 -118 19 -33 5 -96 13 -140 18 -44 5 -116 17 -160 26 -69 15 -105 17 -255 9 -211 -10 -324 -10 -450 -2 -62 5 -128 2 -190 -7z" style="fill: rgb(255, 242, 0);"/>
    <path d="M9918 14713 c7 -3 16 -2 19 1 4 3 -2 6 -13 5 -11 0 -14 -3 -6 -6z" style="fill: rgb(255, 242, 0);"/>
    <path d="M9950 14702 c0 -4 15 -16 34 -26 43 -23 91 -68 193 -181 142 -158 363 -375 422 -413 31 -20 88 -61 126 -92 93 -73 528 -508 589 -588 45 -61 88 -104 146 -147 15 -11 101 -75 191 -143 90 -68 177 -133 194 -145 91 -68 229 -189 370 -327 88 -86 183 -172 210 -190 61 -41 182 -157 236 -227 34 -43 47 -52 82 -58 111 -17 185 -53 260 -124 74 -71 115 -151 131 -260 12 -80 17 -94 41 -113 16 -12 52 -44 80 -70 29 -27 69 -62 90 -78 20 -16 58 -53 85 -82 55 -60 75 -111 90 -231 5 -43 12 -82 15 -87 3 -5 12 -57 20 -117 15 -116 16 -111 -38 -170 -29 -31 -30 -35 -23 -97 8 -84 13 -96 40 -96 24 0 46 34 46 70 0 26 31 26 53 2 11 -12 17 -36 17 -67 0 -40 -5 -52 -31 -77 -27 -26 -30 -35 -24 -65 5 -29 2 -40 -17 -60 -21 -22 -23 -35 -26 -141 -3 -95 1 -132 18 -197 12 -44 25 -100 30 -125 4 -25 10 -52 13 -60 3 -8 8 -24 12 -35 10 -30 26 3 19 40 -4 24 0 35 20 52 l25 22 25 -34 c14 -19 26 -42 26 -52 0 -10 4 -24 9 -32 6 -10 4 -25 -7 -45 -9 -17 -15 -37 -14 -43 5 -22 -13 -15 -43 17 -16 17 -33 30 -38 30 -10 0 0 -52 19 -95 7 -16 16 -51 19 -76 3 -26 12 -54 19 -64 13 -18 15 -17 47 5 50 34 58 48 52 85 -4 28 -1 36 22 51 34 22 41 12 50 -68 7 -59 7 -59 -31 -98 -91 -91 -97 -100 -89 -155 3 -27 11 -65 18 -83 9 -28 15 -32 34 -27 13 3 35 15 49 27 21 19 24 28 19 59 -4 24 -2 40 5 44 21 13 31 -11 32 -78 1 -54 -4 -73 -27 -112 -20 -35 -26 -55 -21 -77 3 -18 1 -37 -5 -44 -8 -10 -9 -25 -1 -51 13 -48 32 -103 44 -126 5 -10 36 -95 68 -189 33 -94 64 -176 69 -182 15 -18 147 -422 160 -486 10 -53 27 -202 35 -305 5 -57 -17 -162 -46 -219 -24 -47 -111 -136 -133 -136 -9 0 -27 -7 -40 -16 -20 -13 -25 -25 -25 -60 0 -24 6 -63 14 -86 42 -128 43 -164 10 -335 -3 -18 -4 -39 0 -48 7 -19 33 -9 41 16 4 10 13 19 22 19 13 0 14 -7 7 -37 -14 -66 -6 -186 16 -237 26 -62 26 -66 -11 -112 -18 -22 -48 -75 -69 -119 -27 -58 -52 -95 -91 -132 l-53 -51 33 -38 c33 -37 33 -38 12 -48 -17 -7 -25 -4 -44 18 l-24 27 -57 -63 c-32 -35 -69 -85 -83 -113 -57 -111 -132 -346 -122 -380 4 -12 -20 -87 -32 -99 -5 -6 -9 -19 -9 -30 0 -22 -9 -41 -54 -116 -29 -50 -45 -83 -72 -150 -10 -25 -28 -60 -41 -78 -13 -17 -32 -56 -42 -85 -10 -28 -30 -77 -44 -107 -15 -30 -38 -86 -53 -125 -15 -38 -32 -77 -39 -85 -39 -44 -170 -350 -215 -499 -13 -41 -33 -92 -46 -115 -13 -23 -35 -79 -50 -126 -22 -72 -107 -255 -216 -461 -16 -29 -47 -74 -70 -101 -23 -27 -57 -72 -77 -101 -19 -29 -69 -93 -110 -143 -42 -50 -88 -105 -102 -122 -50 -62 -155 -166 -214 -213 -33 -27 -112 -89 -175 -138 -63 -49 -129 -103 -145 -119 -17 -16 -71 -56 -120 -89 -50 -33 -121 -81 -160 -108 -141 -95 -295 -154 -505 -190 -211 -37 -247 -44 -300 -60 -30 -10 -95 -36 -145 -58 -81 -37 -100 -42 -195 -48 -117 -7 -158 -17 -188 -47 -12 -12 -37 -24 -56 -28 -20 -3 -36 -10 -36 -14 0 -4 -21 -17 -47 -30 -156 -74 -201 -97 -223 -116 -14 -12 -56 -32 -95 -44 -82 -27 -156 -62 -174 -83 -7 -10 -39 -18 -79 -22 -37 -4 -82 -14 -101 -21 -18 -8 -42 -14 -53 -14 -19 0 -62 -36 -69 -58 -3 -9 -13 -9 -39 -2 -29 8 -46 6 -95 -11 -33 -12 -64 -25 -70 -29 -5 -4 -22 -10 -37 -14 -15 -3 -29 -15 -33 -26 -8 -24 -36 -33 -75 -25 -31 7 -160 -30 -160 -46 0 -5 -7 -9 -15 -9 -8 0 -15 -7 -15 -15 0 -27 -33 -34 -109 -24 l-73 10 -51 -34 c-44 -30 -58 -34 -92 -30 -22 3 -45 9 -50 14 -38 30 -172 17 -227 -22 -29 -21 -36 -21 -139 -3 -24 4 -48 0 -75 -12 -33 -15 -74 -18 -254 -21 -230 -4 -376 -5 -465 -4 -30 1 -70 1 -87 1 -130 -2 -241 4 -320 17 -108 17 -199 17 -210 0 -13 -20 -21 -56 -15 -72 5 -11 38 -14 184 -14 98 0 207 -5 243 -11 36 -5 101 -14 145 -20 44 -5 105 -17 135 -26 61 -17 274 -39 544 -54 98 -6 182 -12 185 -15 4 -2 86 1 182 6 171 10 175 11 254 48 44 21 96 44 115 51 19 8 51 24 70 37 19 13 40 23 46 23 6 0 50 18 97 40 47 22 91 40 99 40 7 0 72 30 143 66 132 67 151 75 330 138 55 19 109 40 120 47 46 28 311 75 615 109 126 15 267 49 322 80 30 17 43 11 20 -10 -12 -11 -24 -20 -27 -20 -3 0 -17 -11 -30 -25 -36 -35 -157 -104 -255 -143 -47 -19 -96 -43 -110 -52 -14 -10 -70 -41 -125 -68 -55 -28 -143 -72 -195 -99 -98 -50 -330 -162 -435 -209 -52 -23 -75 -27 -175 -30 -63 -1 -144 -9 -180 -18 -76 -19 -186 -31 -401 -46 -147 -10 -207 -19 -374 -55 -68 -15 -180 -27 -415 -44 -173 -13 -397 -40 -470 -57 -36 -8 -117 -21 -180 -30 -63 -8 -149 -20 -190 -27 -45 -7 -176 -12 -327 -12 l-252 0 -12 -50 c-28 -119 -117 -234 -222 -284 -45 -22 -55 -30 -41 -34 28 -8 313 -20 429 -19 209 3 651 23 685 32 19 5 62 14 95 20 70 13 223 47 279 61 21 6 73 14 115 19 42 5 127 15 188 24 62 8 168 15 235 15 77 0 153 7 203 17 44 9 154 20 245 24 182 9 345 30 462 60 47 12 120 21 185 23 102 3 119 7 298 66 105 35 224 81 265 104 41 22 121 64 177 93 56 29 117 64 136 78 18 14 69 41 112 61 44 20 103 48 130 62 28 15 82 40 120 57 66 29 304 163 315 177 3 3 43 28 90 54 47 27 104 62 128 78 37 24 214 112 367 182 131 60 357 205 435 281 32 31 74 60 100 70 25 9 87 31 138 50 52 18 115 47 141 63 27 16 81 41 120 55 129 46 214 93 251 138 19 23 87 94 150 158 82 82 131 123 173 143 32 16 70 39 85 51 15 13 51 36 80 51 63 34 102 76 138 148 15 29 45 72 67 97 22 25 48 63 59 85 10 22 42 67 70 100 27 33 59 80 70 105 62 139 154 321 184 361 18 25 43 67 54 94 11 26 46 75 77 108 96 105 142 194 143 277 0 25 7 83 15 130 16 87 33 120 119 227 18 23 46 74 61 115 16 40 41 101 57 136 15 34 28 68 28 76 0 8 14 52 31 98 17 46 37 124 46 173 14 85 31 126 95 230 34 56 78 308 78 446 0 67 5 90 42 180 35 86 43 118 46 188 l4 85 66 80 c78 96 103 149 110 232 4 57 1 69 -32 136 -31 64 -36 83 -36 145 0 39 -7 102 -16 140 -13 55 -15 101 -10 243 3 96 11 219 18 274 11 89 10 114 -11 265 -12 91 -24 186 -27 211 -27 269 -35 387 -33 464 2 92 -12 274 -31 401 -17 113 -28 220 -40 375 -6 80 -15 166 -20 192 -5 26 -12 118 -15 205 -11 329 -16 404 -31 460 -30 114 -73 290 -94 383 -12 52 -35 123 -51 156 -27 58 -37 91 -59 204 -11 56 -30 110 -64 176 -14 29 -26 58 -26 66 0 8 -11 43 -25 79 -14 35 -35 114 -46 174 -34 185 -50 233 -101 312 -53 81 -213 241 -286 287 -26 16 -72 51 -102 78 -30 27 -75 61 -100 76 -25 14 -70 44 -100 67 -30 23 -72 52 -93 64 -21 13 -53 46 -71 75 -19 28 -52 69 -75 91 -22 21 -41 44 -41 50 0 5 -21 37 -46 70 -25 33 -64 85 -86 115 -22 30 -74 89 -116 130 -43 41 -89 89 -103 105 -15 17 -56 56 -92 88 -61 54 -112 90 -302 218 -38 26 -97 72 -130 103 -55 52 -146 106 -179 106 -23 0 -126 92 -146 129 -24 48 -101 123 -153 150 -29 16 -54 41 -81 84 -42 65 -45 74 -71 177 -9 36 -24 81 -32 100 -18 42 -113 130 -162 150 -21 8 -55 29 -77 46 -21 18 -62 43 -91 57 -28 13 -67 34 -85 45 -58 36 -215 92 -313 111 -33 7 -85 21 -115 31 -56 18 -229 91 -265 112 -59 34 -128 64 -227 99 -125 44 -118 42 -118 31z m3771 -4274 c38 -71 39 -188 2 -188 -23 0 -84 72 -76 90 3 8 8 33 11 55 7 65 40 87 63 43z m-21 -262 c0 -4 -15 -20 -32 -37 -35 -32 -74 -40 -64 -13 3 8 -1 29 -10 47 -16 30 -16 31 11 53 l28 22 33 -32 c19 -18 34 -36 34 -40z m125 -116 c4 -6 4 -29 0 -50 -7 -44 -28 -53 -45 -19 -21 38 23 105 45 69z m-63 -4167 c5 -20 -11 -63 -22 -63 -4 0 -13 7 -20 15 -10 12 -10 21 -2 40 13 29 39 33 44 8z m48 -343 c0 -10 -7 -21 -16 -24 -23 -9 -26 -3 -14 28 11 29 30 27 30 -4z m-82 -116 c2 -11 -4 -27 -13 -34 -12 -10 -15 -10 -15 1 0 8 -3 25 -7 38 -5 19 -2 22 13 19 10 -2 20 -13 22 -24z m-78 -196 c0 -36 -4 -35 -14 5 -4 16 -2 27 4 27 5 0 10 -14 10 -32z" style="fill: rgb(255, 242, 0);"/>
    <path d="M8336 14531 c-9 -14 11 -42 65 -89 34 -30 55 -40 94 -45 28 -4 73 -11 100 -17 139 -27 135 -28 189 35 27 31 45 60 40 64 -20 18 -124 41 -204 46 -47 3 -128 8 -181 11 -65 4 -99 2 -103 -5z" style="fill: rgb(255, 242, 0);"/>
    <path d="M6829 13907 c-31 -34 -82 -93 -115 -132 -32 -38 -105 -122 -162 -185 -58 -63 -111 -126 -120 -140 -9 -14 -34 -45 -57 -70 -23 -25 -53 -59 -66 -76 -50 -65 -173 -199 -193 -211 -14 -9 -45 -11 -96 -7 -62 5 -80 11 -102 32 -16 14 -28 36 -28 48 0 12 27 55 63 97 77 94 127 163 127 177 0 29 -37 7 -135 -80 -22 -19 -70 -59 -105 -89 -36 -30 -96 -87 -135 -126 -76 -79 -108 -99 -172 -109 -24 -3 -58 -14 -77 -23 -32 -15 -36 -15 -64 3 -51 33 -155 111 -199 149 -36 32 -44 35 -49 21 -7 -18 6 -34 109 -139 26 -27 47 -57 47 -66 0 -10 -11 -34 -24 -54 -40 -59 -40 -69 4 -154 22 -43 40 -90 40 -104 0 -34 -29 -59 -68 -59 -22 0 -39 -8 -55 -27 -12 -14 -37 -42 -56 -62 -18 -19 -45 -54 -60 -76 -14 -22 -32 -47 -38 -55 -21 -25 -171 -242 -199 -287 -14 -24 -24 -48 -22 -54 2 -7 76 57 164 142 317 307 298 292 336 284 18 -4 57 -19 86 -33 64 -31 75 -59 41 -105 -37 -51 -120 -147 -179 -207 -30 -31 -93 -98 -140 -150 -47 -52 -115 -126 -151 -165 -37 -38 -81 -88 -100 -110 -45 -54 -109 -124 -263 -288 -70 -75 -133 -143 -140 -150 -6 -8 -28 -24 -48 -36 -21 -13 -38 -28 -38 -34 0 -24 46 -92 64 -95 11 -2 28 9 44 28 14 17 38 38 53 46 15 7 34 20 42 29 9 8 37 18 64 22 55 7 106 42 147 102 16 22 46 49 68 61 22 11 65 39 96 63 31 23 69 49 84 57 71 40 127 77 168 109 24 20 60 44 80 54 36 18 88 53 128 88 13 11 34 25 48 31 13 6 24 15 24 19 0 4 10 9 23 13 12 3 49 26 81 51 32 25 62 45 67 45 5 0 35 17 66 37 143 93 151 97 213 94 75 -4 238 -4 275 -2 176 14 245 25 260 41 14 16 28 17 89 13 53 -4 82 -2 107 10 19 8 43 18 54 21 20 6 20 6 1 -9 -11 -8 -26 -15 -33 -15 -7 0 -13 -6 -13 -14 0 -8 -6 -16 -12 -19 -9 -3 -6 -7 6 -13 12 -5 21 -3 24 4 2 6 10 8 18 5 20 -7 44 15 44 41 0 25 17 46 38 46 11 0 13 -8 9 -30 -8 -39 11 -40 54 -1 29 27 33 51 7 51 -15 0 -78 69 -78 85 0 7 -7 15 -15 19 -8 3 -15 11 -15 19 0 19 205 52 240 39 18 -7 33 -5 54 5 18 10 44 13 68 10 27 -4 54 1 85 15 43 19 51 19 144 7 55 -7 102 -9 107 -5 4 5 -22 34 -57 66 -51 45 -63 62 -58 79 3 13 -4 35 -20 58 -23 33 -23 38 -9 49 18 13 12 44 -9 44 -7 0 -31 15 -53 33 -22 17 -55 43 -73 57 -59 45 -113 94 -159 145 -75 82 -112 114 -167 140 -29 14 -53 30 -54 37 0 7 -2 28 -3 46 -2 18 5 49 15 69 11 21 19 44 19 53 0 13 41 139 84 260 26 72 64 187 96 289 30 94 29 121 -4 121 -7 0 -36 11 -64 25 -29 14 -55 25 -59 25 -5 0 -33 -28 -64 -63z m-1244 -917 c4 -6 8 -21 11 -35 4 -24 3 -24 -51 -23 -31 1 -58 5 -61 9 -10 17 10 38 44 47 50 13 50 13 57 2z m1155 -216 c0 -8 -67 -74 -75 -74 -14 0 -2 27 23 51 26 25 52 37 52 23z m130 -64 c0 -5 16 -28 37 -50 27 -31 33 -44 25 -52 -9 -9 -20 -9 -45 0 -50 18 -54 16 -60 -32 -6 -42 -42 -116 -56 -116 -13 0 -48 46 -59 79 -10 29 -10 32 5 27 19 -8 33 10 33 42 0 13 14 44 32 68 24 34 38 44 60 44 15 0 28 -4 28 -10z" style="fill: rgb(255, 242, 0);"/>
    <path d="M9009 12146 c-23 -40 -86 -60 -101 -32 -7 13 -27 16 -94 16 -60 0 -92 5 -109 16 -19 13 -27 13 -44 2 -41 -25 -13 -64 38 -53 18 4 32 2 36 -5 5 -8 22 -10 51 -5 35 5 44 3 44 -9 0 -8 -6 -21 -14 -28 -7 -8 -16 -34 -20 -59 -3 -24 -3 -38 0 -32 4 9 11 10 25 3 25 -14 24 -40 -1 -40 -19 0 -20 -6 -18 -84 2 -66 0 -82 -9 -74 -19 15 -63 1 -63 -21 0 -25 -86 -101 -114 -101 -13 0 -29 -7 -36 -15 -7 -8 -23 -15 -36 -15 -15 0 -24 -6 -24 -15 0 -8 -7 -15 -15 -15 -9 0 -18 -7 -21 -15 -4 -8 -14 -15 -25 -15 -20 0 -39 -28 -39 -59 0 -26 11 -26 52 -1 18 11 36 20 41 20 13 0 7 -110 -8 -146 -13 -32 -13 -39 0 -64 17 -33 20 -53 5 -30 -9 13 -14 11 -31 -10 -13 -15 -29 -24 -42 -22 -17 3 -19 0 -14 -26 4 -22 0 -38 -19 -63 -13 -18 -24 -43 -24 -55 0 -12 -7 -25 -16 -28 -20 -8 -9 -26 17 -26 10 0 19 -6 19 -12 0 -7 7 -22 15 -32 13 -18 16 -18 40 -2 14 9 25 26 25 37 0 30 28 79 45 79 8 0 15 7 15 15 0 8 5 15 10 15 6 0 10 7 10 15 0 8 13 21 29 29 34 18 43 38 35 73 -6 21 -11 24 -35 21 -26 -4 -29 -1 -29 21 0 14 -4 32 -9 40 -5 8 -7 20 -4 27 7 19 33 -8 33 -34 0 -46 28 -32 84 41 20 26 36 50 36 53 0 12 43 44 51 38 16 -10 9 -24 -11 -24 -11 0 -20 -4 -20 -10 0 -5 7 -10 15 -10 25 0 65 23 65 37 0 15 -19 50 -37 71 -19 19 -17 72 2 72 8 0 15 -7 15 -15 0 -8 5 -15 10 -15 6 0 10 -7 10 -15 0 -8 4 -15 8 -15 5 0 14 -11 20 -25 7 -15 20 -25 33 -25 20 0 21 3 15 49 -5 41 -4 51 11 60 10 6 12 11 6 11 -7 0 -13 7 -13 15 0 9 -7 18 -15 21 -8 4 -15 12 -15 20 0 8 -4 14 -10 14 -20 0 -9 40 15 56 17 11 25 25 25 44 0 36 24 57 45 40 13 -11 18 -7 32 29 16 40 19 42 50 39 27 -3 33 0 33 14 0 10 5 18 10 18 6 0 10 6 10 14 0 8 14 19 30 25 17 5 30 17 30 25 0 9 5 16 11 16 5 0 7 5 4 10 -3 6 -19 10 -35 10 -27 0 -60 22 -60 40 0 9 28 40 36 40 10 0 44 -36 44 -47 0 -9 7 -9 29 -2 21 7 30 18 33 38 6 41 -20 67 -81 80 -71 15 -69 15 -92 -23z m-9 -136 c0 -5 -4 -10 -10 -10 -5 0 -10 5 -10 10 0 6 5 10 10 10 6 0 10 -4 10 -10z m-561 -899 c-23 -19 -39 -19 -39 0 0 5 9 9 19 9 11 0 23 5 26 11 4 6 9 8 12 5 3 -3 -5 -14 -18 -25z" style="fill: rgb(255, 242, 0);"/>
    <path d="M9316 11977 c-3 -14 -3 -33 1 -43 6 -15 8 -13 14 11 5 15 4 35 0 43 -6 11 -10 9 -15 -11z" style="fill: rgb(255, 242, 0);"/>
    <path d="M9112 11923 c-15 -6 -72 -62 -72 -71 0 -4 -12 -16 -26 -27 -14 -11 -34 -28 -44 -37 -13 -11 -22 -14 -26 -7 -10 16 -24 -10 -24 -45 0 -24 2 -27 15 -16 12 10 19 7 41 -19 15 -19 34 -30 47 -30 l22 2 -21 4 c-33 6 -19 36 27 62 24 14 39 30 39 42 0 12 7 19 20 19 24 0 40 35 40 85 0 33 -13 46 -38 38z" style="fill: rgb(255, 242, 0);"/>
    <path d="M9175 11771 c-8 -14 32 -33 55 -26 28 9 13 35 -20 35 -16 0 -31 -4 -35 -9z" style="fill: rgb(255, 242, 0);"/>
    <path d="M8911 11693 c-1 -7 -8 -13 -16 -13 -26 0 -16 -16 18 -28 18 -7 39 -12 45 -12 21 0 13 20 -12 30 -13 5 -26 15 -29 22 -4 10 -6 10 -6 1z" style="fill: rgb(255, 242, 0);"/>
    <path d="M9050 11670 c0 -5 9 -14 20 -20 13 -7 20 -21 20 -40 0 -32 1 -33 24 -24 16 6 21 41 8 59 -9 13 -49 35 -62 35 -5 0 -10 -4 -10 -10z" style="fill: rgb(255, 242, 0);"/>
    <path d="M9325 11610 c-3 -5 1 -10 10 -10 9 0 13 5 10 10 -3 6 -8 10 -10 10 -2 0 -7 -4 -10 -10z" style="fill: rgb(255, 242, 0);"/>
    <path d="M9007 11576 c-8 -9 -25 -35 -36 -60 -12 -24 -31 -46 -41 -49 -22 -6 -28 -47 -7 -47 7 0 30 9 52 20 22 11 50 20 62 20 14 0 23 6 23 15 0 9 9 15 21 15 27 0 20 24 -9 28 -15 2 -22 12 -24 34 -3 36 -19 45 -41 24z" style="fill: rgb(255, 242, 0);"/>
    <path d="M13196 11514 c-17 -24 -17 -29 -2 -82 19 -66 33 -83 64 -76 26 7 40 48 23 68 -6 7 -9 21 -5 29 7 19 -32 87 -49 87 -7 0 -20 -12 -31 -26z" style="fill: rgb(255, 242, 0);"/>
    <path d="M3158 11472 c-88 -69 -207 -200 -241 -262 -123 -230 -222 -384 -339 -526 -69 -84 -74 -102 -18 -74 22 11 40 24 40 28 0 9 5 14 122 129 111 108 218 193 245 193 24 0 113 22 156 39 16 6 39 11 52 11 13 0 30 7 39 15 8 8 19 15 24 15 5 0 13 11 16 25 4 16 16 27 39 33 49 14 117 46 117 55 0 25 -36 70 -71 87 -22 12 -65 37 -95 56 l-54 35 0 55 c0 30 5 65 11 76 19 35 -5 41 -43 10z" style="fill: rgb(255, 242, 0);"/>
    <path d="M8792 11371 c7 -9 13 -17 13 -18 0 -1 6 6 12 16 10 16 8 19 -13 19 -21 0 -23 -3 -12 -17z" style="fill: rgb(255, 242, 0);"/>
    <path d="M3435 11370 c-4 -6 3 -10 14 -10 25 0 27 6 6 13 -8 4 -17 2 -20 -3z" style="fill: rgb(255, 242, 0);"/>
    <path d="M13300 11351 c-5 -11 -10 -25 -10 -31 0 -12 91 -100 104 -100 16 0 -3 73 -30 111 -30 43 -48 49 -64 20z" style="fill: rgb(255, 242, 0);"/>
    <path d="M8682 11318 c-14 -14 -16 -38 -4 -38 10 0 42 33 42 43 0 11 -25 8 -38 -5z" style="fill: rgb(255, 242, 0);"/>
    <path d="M8640 11269 c0 -5 5 -7 10 -4 6 3 10 8 10 11 0 2 -4 4 -10 4 -5 0 -10 -5 -10 -11z" style="fill: rgb(255, 242, 0);"/>
    <path d="M8000 11175 c0 -8 5 -15 10 -15 6 0 10 7 10 15 0 8 -4 15 -10 15 -5 0 -10 -7 -10 -15z" style="fill: rgb(255, 242, 0);"/>
    <path d="M13443 11134 c-3 -9 2 -46 11 -84 9 -37 16 -78 16 -91 0 -28 10 -19 15 13 2 12 8 47 14 76 9 45 8 57 -5 78 -19 28 -42 31 -51 8z" style="fill: rgb(255, 242, 0);"/>
    <path d="M8337 11004 c-35 -32 -32 -58 7 -62 35 -4 83 7 70 16 -5 4 -14 20 -19 36 -13 39 -25 41 -58 10z" style="fill: rgb(255, 242, 0);"/>
    <path d="M2960 10804 c-75 -50 -99 -69 -100 -81 0 -6 -14 -22 -31 -35 -18 -13 -51 -42 -75 -65 -25 -24 -49 -43 -54 -43 -10 0 -40 -52 -40 -70 0 -5 14 -10 30 -10 17 0 30 5 30 11 0 5 4 8 9 5 19 -12 41 7 41 34 0 32 14 47 50 52 14 1 25 10 26 18 1 8 2 25 2 38 1 12 7 22 12 22 14 0 54 40 63 63 4 10 17 17 31 17 14 0 33 10 43 23 10 13 24 22 31 19 6 -2 12 3 12 11 0 22 -40 17 -80 -9z" style="fill: rgb(255, 242, 0);"/>
    <path d="M2940 10726 c0 -2 7 -7 16 -10 8 -3 12 -2 9 4 -6 10 -25 14 -25 6z" style="fill: rgb(255, 242, 0);"/>
    <path d="M3873 10681 c-10 -10 -28 -31 -40 -47 -61 -81 -120 -152 -144 -174 -15 -14 -31 -32 -35 -42 -5 -9 -34 -44 -64 -79 -221 -253 -229 -259 -284 -245 -14 3 -32 13 -40 22 -15 14 -15 18 1 45 9 16 30 43 45 61 15 18 28 38 28 45 0 29 -73 -23 -187 -133 -55 -53 -110 -84 -149 -84 -5 0 -34 18 -63 40 -30 22 -56 38 -59 36 -2 -3 7 -25 22 -50 26 -44 26 -46 10 -86 -15 -36 -15 -43 -1 -58 30 -35 30 -58 -4 -88 -57 -53 -112 -114 -132 -146 -11 -18 -23 -35 -27 -38 -12 -8 -50 -74 -50 -87 0 -27 22 -10 119 88 96 97 101 101 133 94 40 -9 68 -32 68 -57 0 -18 -73 -102 -159 -182 -24 -23 -51 -53 -60 -67 -21 -34 -128 -154 -260 -291 -101 -106 -103 -109 -86 -128 23 -26 25 -25 70 10 21 17 48 30 60 30 11 0 34 14 50 30 16 17 54 47 85 68 30 20 57 40 60 43 10 12 171 119 179 119 5 0 27 15 49 33 85 68 139 103 220 142 26 13 51 15 115 9 57 -4 110 -1 172 10 110 20 148 20 183 2 23 -11 32 -11 59 0 30 13 31 16 29 65 -1 46 1 52 26 65 15 8 44 14 66 14 21 0 42 4 48 10 5 5 42 10 83 12 83 3 96 15 57 49 -18 16 -26 33 -26 56 0 35 -9 47 -85 108 -51 42 -115 105 -115 115 0 4 -15 15 -33 23 -57 28 -64 55 -37 145 12 42 29 91 36 109 8 17 14 35 14 40 0 25 72 188 91 206 14 13 19 27 16 45 -3 14 2 40 9 59 8 19 12 38 9 43 -10 17 -54 11 -72 -9z m-93 -825 c0 -7 -11 -21 -25 -30 -30 -19 -35 -2 -7 25 21 22 32 24 32 5z" style="fill: rgb(255, 242, 0);"/>
    <path d="M2880 10621 c0 -5 -9 -11 -21 -14 -11 -3 -23 -15 -26 -26 -3 -12 -12 -21 -19 -21 -8 0 -14 -8 -14 -17 0 -14 9 -18 40 -20 l40 -1 0 42 c0 23 5 47 12 54 9 9 9 12 0 12 -7 0 -12 -4 -12 -9z" style="fill: rgb(255, 242, 0);"/>
    <path d="M3144 10617 c-8 -21 2 -35 16 -21 5 5 6 15 0 24 -8 12 -10 12 -16 -3z" style="fill: rgb(255, 242, 0);"/>
    <path d="M2763 10473 c9 -2 23 -2 30 0 6 3 -1 5 -18 5 -16 0 -22 -2 -12 -5z" style="fill: rgb(255, 242, 0);"/>
    <path d="M2875 10355 c59 -55 75 -64 75 -44 0 5 6 7 13 3 7 -4 8 -3 4 2 -5 5 -16 9 -25 9 -11 0 -20 13 -26 38 -9 34 -12 37 -37 32 -15 -3 -30 -1 -34 4 -3 6 -11 11 -17 11 -6 0 15 -25 47 -55z" style="fill: rgb(255, 242, 0);"/>
    <path d="M2345 10369 c-4 -6 -5 -12 -2 -15 2 -3 7 2 10 11 7 17 1 20 -8 4z" style="fill: rgb(255, 242, 0);"/>
    <path d="M2362 10320 c-30 -22 -42 -37 -42 -56 0 -14 -4 -23 -10 -19 -5 3 -10 -1 -10 -9 0 -10 -9 -16 -21 -16 -14 0 -19 -5 -17 -17 4 -21 42 -25 78 -7 20 10 26 9 36 -4 15 -21 188 -36 216 -18 32 20 28 24 -59 56 -18 7 -33 17 -33 23 0 12 -80 97 -91 97 -3 0 -25 -14 -47 -30z m118 -90 c0 -5 -4 -10 -10 -10 -5 0 -10 5 -10 10 0 6 5 10 10 10 6 0 10 -4 10 -10z" style="fill: rgb(255, 242, 0);"/>
    <path d="M3070 10305 c0 -8 5 -15 10 -15 6 0 10 7 10 15 0 8 -4 15 -10 15 -5 0 -10 -7 -10 -15z" style="fill: rgb(255, 242, 0);"/>
    <path d="M3025 10300 c-3 -5 -1 -10 4 -10 6 0 11 5 11 10 0 6 -2 10 -4 10 -3 0 -8 -4 -11 -10z" style="fill: rgb(255, 242, 0);"/>
    <path d="M2960 10275 c0 -8 9 -15 19 -15 26 0 35 16 15 24 -25 10 -34 7 -34 -9z" style="fill: rgb(255, 242, 0);"/>
    <path d="M704 10074 c-9 -31 -30 -75 -46 -98 -15 -22 -28 -45 -28 -50 0 -5 -18 -66 -39 -135 -22 -69 -47 -161 -56 -204 -8 -43 -24 -97 -34 -120 -11 -23 -27 -89 -35 -147 -9 -58 -25 -148 -36 -200 -40 -195 -61 -321 -70 -421 -5 -57 -14 -138 -20 -179 -7 -41 -15 -156 -19 -255 -5 -99 -13 -193 -19 -210 -10 -29 -21 -121 -42 -365 -5 -63 -12 -221 -16 -350 -5 -209 -12 -291 -45 -540 -4 -36 -11 -117 -15 -181 l-7 -116 50 -64 c74 -96 104 -182 143 -409 5 -30 17 -80 25 -110 23 -81 41 -161 64 -295 36 -198 117 -551 131 -570 4 -5 15 -39 24 -75 10 -36 23 -85 31 -110 8 -25 23 -83 35 -130 11 -47 25 -98 30 -115 5 -16 16 -56 25 -87 9 -32 21 -60 26 -63 4 -3 13 -25 19 -48 19 -78 102 -355 118 -397 6 -14 17 -32 26 -39 9 -7 16 -20 16 -28 0 -33 132 -350 168 -403 13 -19 42 -73 64 -119 39 -82 104 -161 133 -161 8 0 16 -4 19 -9 3 -5 26 -18 51 -30 68 -32 207 -183 296 -322 22 -35 52 -75 65 -89 13 -14 50 -65 83 -115 32 -49 68 -99 79 -109 12 -11 22 -23 22 -28 0 -4 25 -42 55 -83 30 -40 55 -78 55 -82 0 -5 16 -23 35 -42 19 -18 63 -73 97 -123 34 -49 70 -95 80 -102 11 -6 33 -33 50 -61 17 -27 33 -52 37 -55 3 -3 19 -23 36 -45 44 -60 110 -119 168 -150 59 -31 109 -74 101 -87 -3 -4 -18 -8 -35 -8 -16 0 -29 -5 -29 -11 0 -9 60 -90 80 -109 3 -3 23 -26 44 -52 21 -27 46 -48 55 -48 18 0 139 46 156 60 6 4 26 10 45 13 60 10 140 31 140 37 0 3 -22 15 -48 27 -26 12 -79 48 -117 80 -80 66 -126 144 -146 244 -9 46 -18 64 -39 79 -16 11 -31 20 -35 20 -4 0 -30 15 -58 34 -29 18 -110 64 -182 100 -71 37 -143 80 -160 96 -16 15 -42 34 -57 41 -40 21 -288 268 -288 288 0 4 -21 38 -48 74 -57 80 -104 154 -115 181 -9 23 9 118 31 161 8 17 41 66 73 109 33 43 59 85 59 93 0 15 -71 88 -148 151 -72 59 -90 92 -150 267 -28 83 -67 193 -87 245 -20 52 -39 104 -42 115 -2 11 -62 137 -133 280 -70 143 -146 301 -168 350 -22 50 -70 158 -107 240 -37 83 -81 182 -97 220 -16 39 -37 88 -47 110 -10 22 -29 63 -41 90 -12 28 -30 61 -39 75 -21 30 -68 151 -87 223 -17 63 -18 192 -3 253 10 39 9 54 -10 110 -33 102 -47 320 -41 669 8 537 5 945 -7 1050 -7 55 -17 136 -23 180 -6 44 -13 256 -15 470 -5 376 -10 452 -40 670 -7 55 -18 156 -24 225 -6 69 -16 177 -22 241 -18 186 12 325 91 430 36 48 38 54 34 108 -11 119 -23 130 -50 45z" style="fill: rgb(255, 242, 0);"/>
    <path d="M2229 10003 c-54 -60 -54 -60 -22 -88 26 -23 26 -26 11 -36 -10 -5 -18 -16 -18 -24 0 -8 -10 -21 -21 -29 -16 -11 -20 -22 -17 -40 3 -15 1 -26 -6 -26 -16 0 -49 75 -53 117 -1 20 -5 38 -8 41 -14 15 -65 -60 -65 -96 0 -11 -7 -25 -15 -32 -9 -7 -14 -19 -11 -27 3 -7 -3 -22 -14 -33 -11 -11 -20 -28 -20 -39 0 -10 -7 -24 -15 -31 -8 -7 -15 -19 -15 -26 0 -8 -4 -22 -9 -32 -5 -9 -21 -42 -37 -72 -26 -51 -45 -130 -44 -189 0 -14 -6 -34 -13 -45 -8 -12 -16 -34 -20 -51 -3 -16 -9 -39 -13 -49 -5 -14 -4 -17 4 -12 7 4 12 2 12 -3 0 -6 9 -11 20 -11 26 0 25 -18 -2 -47 -17 -18 -22 -35 -22 -83 0 -41 -3 -60 -12 -60 -7 0 -10 8 -7 19 11 43 -52 37 -68 -7 -7 -18 -6 -28 3 -34 10 -6 6 -14 -15 -31 -26 -22 -27 -28 -30 -117 -1 -52 -4 -97 -7 -100 -3 -3 -15 -19 -26 -36 -22 -30 -22 -31 -2 -43 23 -14 37 -6 20 11 -19 19 -14 25 24 32 19 4 38 15 41 24 4 9 11 20 17 24 6 4 5 12 -3 22 -14 16 -6 40 10 31 5 -4 9 1 9 9 0 9 6 16 14 16 8 0 17 11 20 25 9 34 26 32 26 -2 0 -21 3 -24 10 -13 7 11 11 9 19 -13 15 -38 15 -38 -16 -35 -25 3 -28 -1 -31 -30 -2 -20 4 -44 14 -60 12 -18 13 -27 6 -30 -15 -5 -15 -45 -1 -59 9 -9 6 -21 -10 -46 -18 -30 -21 -46 -17 -109 5 -78 -10 -188 -27 -188 -6 0 -7 -13 -3 -32 28 -132 26 -139 -51 -173 -24 -10 -43 -22 -43 -27 0 -4 -4 -8 -10 -8 -11 0 -14 53 -3 64 18 17 28 92 18 131 -10 39 -10 40 -29 22 -13 -14 -15 -22 -7 -30 26 -26 -2 -113 -34 -101 -24 9 -43 -46 -50 -146 -7 -98 -16 -141 -42 -198 -23 -52 -31 -135 -27 -272 4 -140 22 -369 30 -382 8 -12 25 -192 24 -247 -1 -56 18 -186 34 -231 8 -23 11 -78 9 -160 -2 -91 1 -146 14 -202 l16 -77 69 -11 c134 -23 270 -114 298 -201 7 -21 16 -39 20 -39 20 0 39 -122 65 -410 8 -96 20 -202 26 -235 37 -205 56 -283 114 -450 31 -88 67 -206 80 -263 24 -100 74 -221 113 -272 11 -14 37 -52 58 -84 21 -32 51 -72 67 -89 15 -16 27 -33 27 -39 0 -8 44 -68 109 -148 12 -14 34 -43 49 -65 51 -70 189 -205 211 -205 11 0 27 10 36 23 9 12 26 36 38 54 12 18 50 66 85 108 34 41 62 78 62 81 0 7 101 136 127 162 7 7 13 17 13 22 0 5 10 19 23 32 32 33 97 124 97 136 0 6 8 16 18 21 10 5 32 29 48 53 15 24 51 68 78 98 27 30 60 73 75 95 14 22 42 60 62 85 20 25 48 65 62 90 15 25 54 72 87 105 44 44 60 67 60 87 0 27 15 47 22 28 3 -10 78 93 78 108 0 4 15 19 33 33 44 35 96 111 80 116 -19 7 -16 21 6 28 12 4 27 29 42 71 20 57 25 63 33 45 10 -23 15 -25 31 -13 21 15 95 111 95 124 1 7 19 27 40 43 52 40 72 70 72 111 0 27 4 34 19 34 20 0 59 29 59 44 0 5 -7 14 -15 20 -13 10 -13 17 0 59 24 79 28 83 55 51 l23 -29 -7 28 c-5 21 -3 27 9 27 13 0 15 7 10 34 -8 40 5 52 36 34 18 -11 22 -11 27 1 2 7 13 21 23 29 11 9 19 22 19 29 0 18 -25 16 -40 -2 -18 -22 -35 -18 -48 10 -6 14 -8 25 -3 25 5 0 7 9 4 19 -3 13 2 24 16 33 12 7 21 18 21 24 0 6 7 17 15 24 21 18 19 33 -5 27 -39 -10 -20 25 52 94 43 40 79 67 87 64 9 -4 12 1 8 15 -4 16 1 24 19 32 30 14 31 36 2 40 -33 5 -33 26 2 45 32 18 35 39 15 86 -6 14 -2 17 19 17 14 0 26 5 26 10 0 6 -8 10 -18 10 -10 0 -29 5 -43 12 -23 11 -25 16 -21 65 l4 53 -31 -11 c-17 -6 -31 -15 -31 -21 0 -6 -7 -8 -14 -5 -8 3 -29 -1 -46 -9 -29 -15 -32 -14 -78 16 -29 19 -48 27 -51 19 -4 -14 48 -58 72 -59 9 0 17 -7 17 -15 0 -9 -9 -15 -22 -15 -26 1 -58 22 -58 39 0 14 -27 15 -35 1 -3 -5 -22 -10 -41 -10 l-35 0 3 52 3 52 45 11 c46 12 54 28 23 50 -21 16 -9 34 20 29 12 -2 16 -2 10 2 -15 7 -17 43 -3 64 7 11 5 17 -7 21 -13 4 -10 11 15 37 17 18 36 32 42 32 5 0 10 10 10 23 0 13 7 32 15 43 8 10 15 26 15 34 0 24 -53 24 -81 -1 -13 -11 -36 -23 -51 -26 -38 -7 -39 -43 -2 -43 22 0 24 -3 18 -22 -8 -28 -24 -39 -45 -33 -9 3 -23 -3 -33 -14 -10 -11 -28 -22 -41 -25 -13 -3 -25 -16 -29 -31 -4 -17 -13 -25 -27 -25 -28 0 -21 32 9 45 12 6 20 16 17 23 -3 8 -5 18 -5 23 0 5 -7 9 -15 9 -8 0 -15 7 -15 15 0 8 5 15 10 15 7 0 7 6 0 20 -8 14 -8 26 0 40 9 17 8 20 -10 20 -12 0 -20 -7 -20 -17 -1 -16 -2 -16 -15 1 -19 25 -19 36 0 36 9 0 15 9 15 22 0 20 -1 20 -19 4 -14 -13 -24 -14 -46 -6 -26 10 -27 11 -11 35 18 27 21 55 6 55 -5 0 -10 7 -10 15 0 8 -8 15 -17 15 -17 1 -17 1 0 14 24 19 21 36 -7 36 -29 0 -49 -22 -40 -45 6 -15 3 -16 -17 -10 -32 10 -41 25 -34 55 15 66 15 110 1 110 -8 0 -21 3 -30 6 -21 8 -21 -19 -1 -36 13 -10 13 -15 3 -21 -7 -5 -16 -3 -20 4 -5 9 -19 6 -53 -12 -24 -13 -42 -27 -39 -32 7 -12 34 -11 34 1 0 6 7 10 16 10 14 0 16 -9 12 -51 -3 -28 -12 -58 -21 -66 -14 -15 -16 -14 -23 10 -3 15 -11 27 -16 27 -5 0 -16 7 -24 15 -27 27 -44 18 -44 -21 0 -30 -3 -34 -14 -25 -15 12 -10 103 5 109 5 2 9 11 9 19 0 19 29 42 53 43 10 0 30 11 44 24 21 20 24 28 14 39 -6 8 -23 17 -36 20 -22 4 -25 1 -25 -25 0 -30 -19 -58 -39 -58 -6 0 -11 7 -11 16 0 9 -8 23 -17 29 -17 12 -17 14 1 34 11 12 25 21 33 21 15 0 17 16 3 25 -14 9 -68 -24 -111 -67 -41 -40 -95 -56 -146 -43 l-28 7 24 9 c13 5 32 7 42 4 19 -6 34 13 40 50 4 17 -1 19 -33 16 -43 -3 -74 19 -63 46 5 14 8 14 14 4 11 -16 77 -5 85 15 7 19 -22 30 -37 15 -6 -6 -19 -11 -28 -11 -15 0 -16 5 -9 30 5 18 5 32 -1 35 -5 4 -9 -1 -9 -9 0 -12 -10 -16 -36 -16 -19 0 -45 -5 -56 -11 -26 -14 -68 6 -68 33 0 24 -27 34 -52 19 -15 -9 -23 -9 -38 2 -11 8 -17 16 -14 19 3 4 -7 9 -23 12 -31 7 -64 47 -44 54 6 2 11 11 11 21 0 9 5 22 12 29 9 9 9 15 0 24 -9 9 -12 9 -12 -3 0 -11 -10 -14 -40 -11 -22 2 -40 8 -40 13 0 5 5 9 10 9 6 0 10 18 10 39 l0 40 -52 -3 c-29 -2 -41 -2 -25 1 32 5 35 19 6 28 -13 4 -25 2 -29 -5 -6 -9 -18 -2 -44 24 -36 36 -36 36 -11 36 15 0 25 6 25 15 0 19 -21 65 -30 65 -4 0 -11 16 -15 36 -10 58 -26 84 -51 84 -17 0 -21 4 -17 19 3 11 14 27 24 37 10 9 19 23 19 31 0 15 28 17 48 4 11 -7 10 -16 -8 -51 -12 -23 -20 -43 -18 -45 2 -2 20 -6 42 -10 l39 -8 -5 32 c-3 21 0 31 9 31 13 0 18 18 14 54 -1 19 -45 66 -61 66 -5 0 -21 -11 -36 -25 -15 -14 -34 -25 -43 -25 -9 0 -12 3 -6 8 6 4 10 13 11 20 2 27 5 30 36 41 29 10 30 12 15 29 -10 11 -13 27 -10 45 3 16 1 27 -6 27 -19 0 -12 26 8 27 14 1 22 -7 26 -28 5 -20 13 -29 26 -29 10 0 19 7 19 15 0 8 -4 15 -9 15 -15 0 -21 29 -11 55 9 23 7 25 -23 26 -17 1 -35 1 -39 0 -5 0 -8 9 -8 21 0 29 -16 55 -27 45 -4 -5 -6 -36 -5 -69 3 -53 1 -60 -13 -54 -9 3 -26 1 -37 -5 -19 -10 -20 -12 -5 -21 19 -10 24 -78 7 -78 -5 0 -10 7 -10 15 0 8 -9 15 -20 15 -11 0 -20 -7 -20 -15 0 -8 -3 -15 -7 -16 -68 -7 -89 2 -53 21 12 6 20 21 20 35 0 21 -5 25 -30 25 -26 0 -30 -4 -30 -27 l-1 -28 -20 25 -20 24 20 8 c12 4 21 16 21 26 0 11 12 25 28 32 22 11 24 14 10 17 -22 5 -24 39 -2 47 31 12 44 6 44 -19 0 -18 4 -23 15 -19 9 4 15 0 15 -9 0 -8 6 -19 13 -26 23 -18 37 9 37 71 l0 58 40 0 c22 0 40 5 40 10 0 6 7 10 15 10 8 0 15 4 15 9 0 17 -123 19 -143 2 -9 -8 -18 -12 -20 -10 -1 2 -9 12 -16 22 -12 15 -11 20 5 32 25 19 44 19 44 0 0 -10 10 -15 27 -15 25 0 25 1 10 18 -23 26 -21 55 5 67 32 15 35 35 4 35 -32 0 -35 27 -3 33 l22 4 -22 2 c-14 0 -29 -9 -40 -25 -35 -51 -68 -79 -95 -81 -19 -1 -28 3 -28 13 0 9 -10 14 -28 14 -16 0 -36 8 -45 18 -16 17 -15 19 18 35 19 9 38 16 41 14 4 -1 11 9 15 22 7 19 14 22 34 17 27 -7 34 11 13 32 -9 9 -5 16 15 32 37 29 34 56 -7 75 -29 14 -37 14 -56 3 -18 -11 -22 -11 -31 4 -5 10 -16 15 -25 11 -9 -3 -11 -9 -5 -17 5 -6 11 -29 13 -51 l3 -40 15 33 c13 28 20 32 52 32 31 0 38 -4 38 -20 0 -17 -7 -20 -40 -20 -33 0 -40 -3 -40 -20 0 -32 -26 -23 -57 18 -38 51 -55 62 -78 55 -11 -4 -30 -7 -43 -6 -15 1 -29 -9 -39 -26 -9 -14 -24 -38 -34 -52 -10 -15 -15 -36 -13 -47 5 -16 0 -20 -25 -24 -17 -2 -31 0 -31 5 0 5 -15 7 -32 4 -43 -7 -106 21 -114 50 -3 12 -12 27 -20 34 -8 6 -14 19 -14 29 0 9 -11 22 -25 28 -21 10 -27 20 -27 52 -1 3 2 19 5 36 4 23 1 38 -13 54 -17 20 -17 23 -2 41 9 10 20 19 25 19 5 0 24 16 43 35 18 19 40 35 48 35 19 0 36 30 41 71 5 39 22 59 50 59 13 0 26 8 29 17 12 30 -5 102 -31 129 -22 24 -23 28 -9 36 9 5 16 21 16 36 0 15 6 36 14 47 7 11 16 34 20 50 4 17 13 37 20 45 8 8 17 28 20 45 4 16 12 36 18 42 15 18 48 16 48 -3 0 -11 5 -14 16 -10 9 3 17 6 19 6 2 0 13 16 25 36 l23 36 -22 28 c-12 18 -17 31 -11 35 6 4 8 10 5 15 -3 4 3 11 12 14 24 10 3 26 -49 39 -46 10 -110 16 -248 23 -47 2 -107 6 -135 10 -46 5 -52 4 -76 -23z m327 -170 c-10 -10 -19 5 -10 18 6 11 8 11 12 0 2 -7 1 -15 -2 -18z m-426 -247 c0 -8 -4 -18 -10 -21 -5 -3 -10 3 -10 14 0 12 5 21 10 21 6 0 10 -6 10 -14z m-87 -556 c-3 -11 -9 -20 -15 -20 -5 0 -4 9 2 20 6 11 12 20 14 20 2 0 2 -9 -1 -20z m781 -159 c3 -5 -1 -14 -9 -21 -13 -10 -15 -9 -15 9 0 21 14 28 24 12z m-40 -37 c21 -8 21 -34 -1 -34 -14 0 -14 -2 2 -20 18 -20 18 -21 -3 -43 l-22 -21 -22 21 c-21 22 -21 23 -3 43 11 12 13 20 6 20 -9 0 -9 5 -1 20 11 21 19 24 44 14z m-222 -85 c5 -30 5 -30 -15 -11 -11 11 -16 25 -13 31 12 20 24 12 28 -20z m-275 -75 c-3 -3 -15 0 -27 6 -21 11 -21 12 -3 25 16 12 19 11 27 -6 5 -10 7 -22 3 -25z m826 -365 c-8 -8 -16 -8 -30 0 -16 9 -14 10 12 11 21 0 26 -3 18 -11z m-313 -13 c0 -7 -10 -16 -22 -19 -27 -7 -32 -3 -25 18 8 19 47 20 47 1z m230 -105 c0 -15 -30 -41 -47 -41 -13 0 -12 5 7 25 24 26 40 32 40 16z m-66 -218 c16 -21 17 -29 7 -45 -9 -14 -9 -23 -1 -33 15 -18 -1 -26 -22 -11 -24 17 -39 62 -32 92 8 31 24 30 48 -3z m-1104 -118 c0 -8 5 -15 10 -15 6 0 10 -7 10 -16 0 -11 -6 -14 -22 -8 -29 8 -28 6 -21 32 6 25 23 30 23 7z m1420 -70 c0 -9 -6 -12 -15 -9 -8 4 -12 10 -9 15 8 14 24 10 24 -6z m-240 -5 c0 -5 -4 -10 -10 -10 -5 0 -10 5 -10 10 0 6 5 10 10 10 6 0 10 -4 10 -10z m-922 -63 c8 -39 4 -77 -6 -49 -2 7 -15 12 -29 12 -22 0 -24 3 -18 23 3 12 9 32 12 44 8 34 31 17 41 -30z m-253 -37 c21 0 19 -38 -3 -84 l-18 -37 -13 55 c-7 31 -17 58 -22 62 -6 4 -3 14 7 26 18 19 18 19 26 -1 4 -12 14 -21 23 -21z m-89 -308 c-23 -23 -33 -6 -10 19 12 13 20 16 22 9 3 -7 -3 -19 -12 -28z m2008 -51 c12 -19 -7 -42 -32 -39 -33 4 -38 22 -10 36 29 14 36 14 42 3z m1 -111 c3 -5 -3 -10 -14 -10 -12 0 -21 5 -21 10 0 6 6 10 14 10 8 0 18 -4 21 -10z m-97 -32 c-15 -15 -22 -17 -34 -7 -23 19 -17 27 20 27 34 0 34 0 14 -20z m-2068 -97 c0 -9 -5 -23 -10 -31 -9 -13 -10 -13 -10 0 0 8 -3 25 -6 38 -5 18 -3 21 10 16 9 -3 16 -14 16 -23z m2580 -72 c0 -11 -4 -17 -10 -14 -5 3 -10 15 -10 26 0 11 5 17 10 14 6 -3 10 -15 10 -26z m-170 -19 c0 -20 -5 -30 -15 -30 -29 0 -18 50 13 59 1 1 2 -12 2 -29z m435 -260 c3 -5 -3 -10 -15 -10 -12 0 -18 5 -15 10 3 6 10 10 15 10 5 0 12 -4 15 -10z m-17 -165 c0 -14 -4 -28 -9 -31 -5 -3 -9 9 -9 25 0 17 4 31 9 31 5 0 9 -11 9 -25z m17 -795 c13 -6 15 -9 5 -9 -8 -1 -21 -10 -28 -21 -7 -11 -22 -20 -35 -19 -12 0 -16 3 -9 6 6 2 12 10 12 17 0 13 20 37 30 35 3 0 14 -4 25 -9z m-108 -256 c-3 -3 -12 -4 -19 -1 -8 3 -5 6 6 6 11 1 17 -2 13 -5z" style="fill: rgb(255, 242, 0);"/>
    <path d="M2109 9979 c-14 -27 1 -44 25 -26 11 8 15 19 10 30 -8 23 -21 21 -35 -4z" style="fill: rgb(255, 242, 0);"/>
    <path d="M3000 9165 c0 -9 5 -15 11 -13 6 2 11 8 11 13 0 5 -5 11 -11 13 -6 2 -11 -4 -11 -13z" style="fill: rgb(255, 242, 0);"/>
    <path d="M2940 9132 c-5 -2 -10 -12 -10 -22 0 -21 -34 -45 -50 -35 -11 7 -12 -1 -4 -33 5 -17 9 -20 20 -11 7 6 23 8 35 4 15 -5 19 -4 14 5 -4 7 -1 10 11 8 19 -3 20 1 23 47 1 21 6 25 31 25 17 0 30 3 30 8 0 7 -79 10 -100 4z" style="fill: rgb(255, 242, 0);"/>
    <path d="M1612 8555 c-15 -32 -16 -92 -1 -100 6 -4 7 -19 4 -37 -6 -23 -4 -29 6 -26 8 3 14 20 15 39 1 19 7 49 15 68 11 27 11 35 2 38 -7 3 -13 13 -13 24 0 27 -15 24 -28 -6z" style="fill: rgb(255, 242, 0);"/>
    <path d="M3135 8570 c-3 -5 -1 -10 4 -10 6 0 11 -7 11 -15 0 -17 18 -19 40 -5 13 8 12 11 -5 24 -23 18 -41 20 -50 6z" style="fill: rgb(255, 242, 0);"/>
    <path d="M1650 8440 c0 -5 5 -10 11 -10 5 0 7 5 4 10 -3 6 -8 10 -11 10 -2 0 -4 -4 -4 -10z" style="fill: rgb(255, 242, 0);"/>
    <path d="M3280 8400 c0 -23 0 -23 35 -10 31 12 24 30 -11 30 -17 0 -24 -5 -24 -20z" style="fill: rgb(255, 242, 0);"/>
    <path d="M3242 8317 c18 -19 38 -22 38 -7 0 6 -4 10 -9 10 -5 0 -18 3 -28 7 -17 6 -17 6 -1 -10z" style="fill: rgb(255, 242, 0);"/>
    <path d="M1720 8309 c0 -6 5 -19 10 -30 10 -17 13 -18 25 -5 24 23 18 46 -10 46 -14 0 -25 -5 -25 -11z" style="fill: rgb(255, 242, 0);"/>
    <path d="M3183 8306 c9 -7 17 -18 17 -24 0 -6 7 -9 15 -6 22 9 18 31 -7 38 -36 9 -45 7 -25 -8z" style="fill: rgb(255, 242, 0);"/>
    <path d="M1600 8230 c0 -5 5 -10 10 -10 6 0 10 5 10 10 0 6 -4 10 -10 10 -5 0 -10 -4 -10 -10z" style="fill: rgb(255, 242, 0);"/>
    <path d="M3282 7940 c0 -14 2 -19 5 -12 2 6 2 18 0 25 -3 6 -5 1 -5 -13z" style="fill: rgb(255, 242, 0);"/>
    <path d="M3200 7930 c0 -5 9 -10 21 -10 11 0 17 5 14 10 -3 6 -13 10 -21 10 -8 0 -14 -4 -14 -10z" style="fill: rgb(255, 242, 0);"/>
    <path d="M8263 7925 c-21 -15 -41 -71 -29 -82 3 -3 12 0 20 6 20 17 35 6 29 -19 -4 -13 -14 -20 -32 -20 -38 -1 -119 -24 -133 -38 -7 -7 -20 -12 -30 -12 -9 0 -22 -9 -28 -20 -6 -11 -16 -20 -23 -19 -26 3 -37 -2 -37 -16 0 -31 -54 -74 -100 -81 -37 -5 -71 -26 -80 -49 -11 -28 -14 -29 -40 -15 -16 9 -21 6 -26 -15 -3 -13 -1 -39 5 -56 14 -42 8 -46 -34 -24 -34 19 -34 19 -58 -3 -13 -12 -36 -22 -53 -22 -31 0 -94 33 -94 50 0 5 -14 10 -30 10 -23 0 -33 6 -42 25 -7 16 -19 25 -33 25 -12 0 -40 14 -61 31 -22 17 -55 39 -74 49 -19 10 -76 59 -127 109 -78 77 -97 91 -125 91 -26 0 -30 3 -18 11 12 9 12 10 -3 5 -10 -3 -25 -6 -33 -6 -8 0 -14 -8 -14 -19 0 -10 -11 -26 -25 -35 -14 -9 -25 -22 -25 -30 0 -7 11 -25 25 -40 14 -15 25 -30 25 -34 0 -4 18 -26 40 -50 23 -24 57 -67 76 -97 19 -30 47 -70 63 -88 16 -17 32 -43 36 -57 4 -13 14 -30 22 -38 24 -24 11 -47 -25 -46 -28 2 -32 -1 -32 -22 0 -13 -4 -24 -10 -24 -5 0 -10 -5 -10 -10 0 -12 -61 -69 -74 -70 -4 0 -26 -14 -47 -31 -38 -30 -41 -31 -59 -14 -27 25 -44 10 -23 -21 13 -20 14 -30 5 -49 -7 -14 -18 -25 -27 -25 -8 0 -15 -4 -15 -10 0 -5 -7 -10 -15 -10 -8 0 -19 -9 -25 -20 -9 -17 -17 -20 -44 -14 -39 7 -52 -6 -47 -49 1 -17 -3 -29 -13 -33 -9 -3 -16 -12 -16 -19 0 -8 -9 -16 -20 -20 -11 -4 -23 -20 -28 -37 -10 -40 -35 -57 -61 -41 -17 10 -21 8 -31 -17 -11 -25 -9 -35 8 -69 30 -56 12 -67 -53 -34 -28 13 -51 28 -53 32 -4 12 -82 0 -82 -14 0 -6 -17 -28 -37 -48 -83 -77 -99 -94 -120 -120 -13 -15 -23 -32 -23 -38 0 -6 -13 -27 -30 -46 -16 -18 -30 -39 -30 -46 0 -7 -23 -21 -51 -32 -32 -11 -54 -25 -56 -36 -3 -10 -19 -28 -37 -39 -17 -10 -47 -42 -66 -69 -23 -33 -45 -53 -64 -59 -22 -6 -32 -16 -38 -40 -6 -22 -15 -32 -28 -32 -10 0 -22 -5 -25 -10 -4 -6 -14 -10 -23 -9 -30 3 -35 -1 -22 -16 11 -13 10 -19 -6 -35 -10 -10 -25 -26 -32 -34 -6 -9 -19 -13 -27 -10 -19 8 -44 -12 -56 -43 -9 -24 -29 -32 -29 -12 0 7 -10 -3 -23 -22 -13 -19 -31 -33 -40 -33 -9 1 -17 -2 -17 -7 0 -5 5 -9 11 -9 5 0 7 -5 3 -11 -4 -8 -9 -7 -14 2 -7 10 -12 10 -25 -1 -31 -26 -38 -50 -18 -66 16 -12 13 -13 -25 -8 -35 5 -41 4 -37 -8 9 -23 -12 -66 -34 -73 -12 -3 -21 -12 -21 -20 0 -21 -87 -105 -108 -105 -11 0 -25 -7 -32 -15 -9 -10 -9 -15 -1 -15 16 0 14 -16 -4 -34 -8 -8 -15 -23 -15 -34 0 -12 -9 -22 -22 -26 -47 -12 -55 -8 -56 34 -1 22 3 40 8 40 6 0 10 9 10 20 0 34 -25 22 -98 -49 -57 -56 -68 -85 -27 -75 19 5 25 2 25 -10 0 -10 -11 -19 -30 -22 -16 -4 -35 -13 -41 -20 -6 -8 -18 -14 -26 -14 -8 0 -20 -14 -27 -30 -7 -17 -16 -27 -20 -23 -14 14 -25 -22 -20 -62 4 -27 2 -36 -4 -26 -11 16 -17 8 -27 -36 -8 -40 -23 -43 -27 -5 -2 21 -8 26 -23 24 -59 -9 -113 -53 -121 -101 -3 -20 -20 -58 -37 -84 -22 -35 -27 -51 -18 -56 9 -6 8 -11 -4 -21 -13 -11 -21 -11 -36 -2 -10 7 -19 9 -19 5 0 -7 -68 -85 -125 -144 -8 -9 -15 -25 -15 -37 0 -18 -8 -23 -40 -28 -28 -5 -40 -11 -40 -23 0 -32 -62 -88 -105 -95 -45 -8 -68 -22 -78 -49 -4 -9 -21 -20 -38 -24 -17 -3 -33 -12 -36 -19 -3 -8 -11 -14 -18 -14 -23 0 -47 -37 -37 -57 7 -12 6 -30 -3 -56 -18 -52 -21 -54 -55 -29 -16 12 -33 22 -39 22 -13 0 -22 -27 -15 -45 7 -18 -13 -45 -33 -45 -7 0 -40 -19 -71 -42 -31 -24 -66 -45 -77 -48 -11 -3 -21 -15 -23 -27 -2 -11 -16 -31 -32 -43 -16 -12 -26 -28 -24 -35 9 -23 -14 -52 -45 -58 -16 -4 -40 -18 -54 -33 -21 -22 -28 -24 -46 -15 -22 12 -22 13 -46 -57 -2 -7 -8 -11 -12 -10 -15 5 -73 -46 -73 -64 0 -9 -11 -25 -25 -34 -14 -9 -25 -23 -25 -30 0 -16 -26 -19 -35 -4 -7 11 -35 2 -32 -10 1 -4 -2 -8 -8 -8 -5 0 -9 4 -7 9 3 14 -26 11 -35 -3 -4 -7 -6 -20 -5 -29 2 -9 -8 -26 -22 -36 -13 -11 -26 -30 -28 -44 -2 -16 -10 -25 -24 -27 -12 -2 -30 -12 -40 -23 -9 -10 -27 -19 -40 -19 -17 0 -28 -10 -40 -36 -9 -20 -25 -41 -36 -47 -10 -7 -18 -17 -18 -24 0 -7 -11 -20 -25 -29 -14 -9 -25 -25 -25 -36 0 -26 24 -18 28 10 4 29 33 28 60 -1 44 -47 23 -67 -71 -67 -56 0 -103 -21 -112 -50 -3 -11 -12 -26 -18 -32 -7 -7 -30 -36 -52 -63 -22 -28 -51 -62 -66 -77 -14 -15 -42 -51 -62 -80 -19 -29 -47 -64 -62 -78 -15 -14 -39 -42 -52 -64 -14 -21 -52 -71 -84 -111 -39 -47 -59 -80 -59 -98 0 -15 -5 -47 -12 -72 -10 -38 -10 -50 3 -71 44 -73 157 -185 197 -196 47 -13 139 22 197 75 16 16 57 47 90 69 52 36 149 110 195 150 9 8 33 27 55 43 22 17 47 38 57 47 9 10 34 29 55 42 80 53 129 90 163 122 19 19 38 34 42 34 4 0 34 23 67 50 33 28 64 50 69 50 5 0 16 7 23 16 13 16 135 111 185 145 13 8 39 30 59 47 19 18 37 32 40 32 9 0 93 61 124 91 9 8 36 30 61 49 25 19 68 54 96 79 29 25 75 62 103 81 29 19 64 45 79 58 15 13 45 36 67 50 22 15 79 59 126 98 47 39 115 92 150 118 109 78 150 109 201 156 28 25 57 49 66 54 20 11 111 84 132 107 8 8 43 34 77 57 34 23 65 46 68 52 4 6 41 34 83 62 42 29 104 75 138 102 34 28 78 65 99 81 21 17 55 44 75 62 20 17 57 47 82 65 26 18 110 85 187 148 197 162 307 250 355 284 22 17 42 33 44 37 2 4 29 27 60 51 31 23 59 45 62 48 3 3 41 35 84 70 44 36 109 91 145 123 81 72 88 77 99 77 4 0 21 14 37 30 16 17 32 30 37 30 9 0 44 27 67 53 8 9 51 45 95 80 78 61 122 99 265 227 40 36 83 74 96 85 83 71 135 121 135 130 0 6 12 18 28 27 32 20 62 40 76 51 19 12 130 101 142 112 6 6 28 24 49 40 49 38 144 121 170 149 11 12 36 33 55 47 19 15 51 42 70 60 55 52 93 79 111 79 9 0 39 -21 66 -47 42 -41 65 -54 161 -87 62 -21 112 -42 112 -46 0 -4 12 -11 28 -14 15 -4 53 -23 85 -43 51 -31 186 -85 285 -114 17 -5 49 -14 70 -20 20 -6 64 -15 97 -20 33 -6 101 -17 150 -25 109 -18 133 -18 255 -10 154 11 278 43 390 102 38 20 37 49 -4 87 -30 27 -278 273 -423 420 -23 23 -72 66 -108 96 -37 29 -71 63 -77 75 -5 11 -82 91 -169 176 -88 85 -227 220 -308 300 -226 222 -278 270 -289 270 -6 0 -19 11 -30 25 -11 14 -26 25 -33 25 -8 0 -32 12 -54 25 -47 29 -54 30 -82 10z m-170 -218 c-4 -7 0 -6 10 2 11 8 17 9 17 3 0 -6 -9 -16 -19 -21 -24 -14 -54 15 -31 29 18 11 33 2 23 -13z m-33 -62 c0 -9 -9 -15 -21 -15 -18 0 -19 2 -9 15 7 8 16 15 21 15 5 0 9 -7 9 -15z m-90 -95 c-20 -12 -33 -1 -19 16 9 11 15 12 23 4 8 -8 7 -13 -4 -20z m604 -159 c3 -5 -6 -11 -19 -14 -25 -4 -40 4 -28 17 9 9 41 7 47 -3z m-2859 -1550 c-7 -24 -35 -29 -35 -6 0 13 31 38 38 30 2 -2 1 -13 -3 -24z m-1565 -1371 c-20 -13 -40 -13 -40 0 0 6 12 10 28 10 21 0 24 -2 12 -10z" style="fill: rgb(255, 242, 0);"/>
    <path d="M3428 7875 c-2 -25 1 -50 6 -55 15 -15 46 -12 46 5 0 8 -9 15 -20 15 -26 0 -28 54 -2 69 15 9 15 10 -4 11 -19 0 -23 -7 -26 -45z" style="fill: rgb(255, 242, 0);"/>
    <path d="M3553 7894 c-34 -26 -44 -54 -20 -54 8 0 22 16 33 35 10 19 25 36 34 39 13 3 13 4 0 5 -8 0 -30 -11 -47 -25z" style="fill: rgb(255, 242, 0);"/>
    <path d="M3590 7715 c-8 -10 -22 -20 -32 -24 -12 -4 -14 -11 -9 -20 6 -9 15 -11 27 -6 11 4 28 10 38 12 28 5 29 8 8 33 -17 21 -19 21 -32 5z" style="fill: rgb(255, 242, 0);"/>
    <path d="M3666 7694 c-4 -9 -4 -19 -1 -22 3 -3 11 0 17 6 9 9 9 15 1 23 -7 7 -12 5 -17 -7z" style="fill: rgb(255, 242, 0);"/>
    <path d="M3391 7691 c-21 -13 -5 -41 24 -41 20 0 25 5 25 25 0 26 -22 33 -49 16z" style="fill: rgb(255, 242, 0);"/>
    <path d="M4095 7690 c-3 -5 3 -10 15 -10 12 0 18 5 15 10 -3 6 -10 10 -15 10 -5 0 -12 -4 -15 -10z" style="fill: rgb(255, 242, 0);"/>
    <path d="M3760 7670 c0 -5 -11 -12 -25 -16 -22 -5 -25 -11 -23 -45 2 -23 8 -39 16 -39 6 0 12 7 12 15 0 8 5 15 10 15 6 0 10 9 10 19 0 11 5 23 10 26 6 3 10 13 10 21 0 8 -4 14 -10 14 -5 0 -10 -4 -10 -10z" style="fill: rgb(255, 242, 0);"/>
    <path d="M4062 7637 c-27 -29 -28 -37 -3 -37 11 0 22 -6 25 -12 3 -7 3 -1 0 15 -4 16 -2 27 5 27 6 0 11 7 11 15 0 21 -13 19 -38 -8z" style="fill: rgb(255, 242, 0);"/>
    <path d="M3600 7610 c-11 -7 -7 -10 18 -10 20 0 31 4 27 10 -8 13 -26 13 -45 0z" style="fill: rgb(255, 242, 0);"/>
    <path d="M4408 7563 c6 -2 18 -2 25 0 6 3 1 5 -13 5 -14 0 -19 -2 -12 -5z" style="fill: rgb(255, 242, 0);"/>
    <path d="M3968 7538 c-8 -22 4 -68 18 -68 8 0 14 6 14 14 0 8 6 17 13 20 10 5 10 7 0 12 -7 3 -13 12 -13 20 0 17 -27 19 -32 2z" style="fill: rgb(255, 242, 0);"/>
    <path d="M3840 7530 c0 -5 5 -10 11 -10 5 0 7 5 4 10 -3 6 -8 10 -11 10 -2 0 -4 -4 -4 -10z" style="fill: rgb(255, 242, 0);"/>
    <path d="M3858 7506 c-35 -26 -7 -51 30 -28 7 5 10 16 6 25 -7 20 -13 21 -36 3z" style="fill: rgb(255, 242, 0);"/>
    <path d="M4087 7489 c-9 -6 -17 -14 -17 -19 0 -16 30 -11 37 5 8 21 1 25 -20 14z" style="fill: rgb(255, 242, 0);"/>
    <path d="M3795 7470 c-8 -13 9 -20 24 -11 10 6 9 10 -3 14 -8 3 -18 2 -21 -3z" style="fill: rgb(255, 242, 0);"/>
    <path d="M4402 7294 c5 -25 35 -41 49 -27 18 18 3 43 -26 43 -19 0 -26 -5 -23 -16z" style="fill: rgb(255, 242, 0);"/>
    <path d="M4721 7244 c0 -11 3 -14 6 -6 3 7 2 16 -1 19 -3 4 -6 -2 -5 -13z" style="fill: rgb(255, 242, 0);"/>
    <path d="M4573 7243 c-20 -7 -16 -81 5 -102 9 -10 31 -21 47 -25 18 -4 25 -3 17 2 -7 5 -10 15 -7 24 6 16 -30 108 -42 107 -4 0 -14 -3 -20 -6z" style="fill: rgb(255, 242, 0);"/>
    <path d="M4320 7150 c0 -29 2 -30 45 -30 25 0 45 2 45 5 0 12 -57 55 -72 55 -13 0 -18 -8 -18 -30z" style="fill: rgb(255, 242, 0);"/>
    <path d="M11030 7161 c-31 -3 -68 -14 -83 -23 -14 -10 -33 -18 -41 -18 -10 0 -13 -6 -10 -15 8 -20 24 -19 40 3 9 12 16 14 21 6 5 -6 18 -14 30 -18 29 -9 63 -53 63 -81 0 -12 -13 -34 -30 -48 -30 -27 -60 -36 -60 -17 0 6 5 10 10 10 6 0 10 9 10 19 0 28 -36 36 -66 16 -17 -11 -29 -13 -37 -6 -21 17 -103 -7 -139 -41 -25 -23 -38 -28 -60 -24 -19 4 -43 -2 -74 -19 -26 -14 -53 -25 -61 -25 -10 0 -12 -8 -8 -33 6 -29 3 -36 -20 -51 -14 -10 -35 -26 -46 -37 -10 -10 -23 -19 -29 -19 -10 0 -22 -37 -24 -74 -1 -27 -50 -33 -101 -12 -29 13 -36 20 -30 33 4 10 8 25 9 33 2 27 78 110 100 110 10 0 13 6 9 18 -8 21 -43 56 -43 42 0 -5 -19 -10 -43 -10 -24 0 -49 -6 -55 -12 -7 -7 -18 -13 -25 -13 -7 -1 -25 -5 -41 -10 -23 -6 -33 -4 -46 11 -15 18 -54 44 -65 44 -3 0 -5 -9 -5 -20 0 -13 -7 -20 -20 -20 -15 0 -22 -9 -26 -30 -6 -27 -20 -36 -48 -31 -19 4 -25 -24 -9 -41 15 -17 15 -23 -3 -110 -4 -18 1 -38 14 -61 12 -18 21 -42 20 -52 -1 -11 2 -38 6 -61 5 -31 4 -44 -8 -54 -9 -7 -16 -18 -16 -25 0 -19 -88 -94 -119 -102 -14 -3 -35 -12 -46 -19 -11 -8 -28 -14 -38 -14 -9 0 -20 -7 -24 -15 -7 -19 -55 -40 -112 -50 -25 -4 -41 -12 -41 -21 0 -8 -9 -14 -20 -14 -11 0 -20 -6 -20 -13 0 -7 -6 -21 -13 -31 -11 -15 -19 -16 -61 -6 -37 8 -51 8 -57 -1 -4 -8 -12 -3 -24 14 -14 22 -21 25 -36 16 -10 -5 -19 -16 -19 -24 0 -8 -7 -15 -15 -15 -9 0 -18 -7 -21 -15 -7 -18 -40 -20 -50 -4 -4 7 -22 9 -45 6 -22 -3 -52 0 -68 6 -31 11 -50 1 -64 -35 -9 -24 -22 -23 -61 7 -45 34 -74 33 -78 -2 -2 -23 -8 -29 -36 -31 -32 -3 -62 15 -62 37 0 6 -7 11 -16 11 -8 0 -30 11 -48 25 -18 14 -42 25 -54 25 -17 0 -21 7 -24 37 -3 32 -7 39 -35 46 -34 10 -52 0 -66 -35 -4 -13 -1 -18 11 -19 12 0 11 -3 -6 -10 -29 -11 -56 1 -100 48 -25 27 -36 33 -45 24 -15 -15 -30 -14 -77 7 -31 13 -40 22 -38 37 2 14 10 20 26 19 12 0 19 2 15 6 -14 13 -142 -1 -137 -14 3 -7 -2 -13 -11 -13 -8 0 -15 4 -15 8 0 4 -10 7 -22 6 -13 0 -32 3 -42 8 -17 7 -18 5 -12 -18 6 -25 4 -27 -29 -27 -20 0 -34 4 -31 9 3 5 -4 11 -16 14 -21 6 -48 -14 -29 -21 5 -2 7 -12 4 -23 -5 -20 -44 -36 -61 -25 -5 3 -15 -1 -22 -10 -11 -12 -10 -17 8 -30 26 -18 29 -42 6 -51 -10 -4 -25 4 -40 20 -22 24 -27 25 -52 15 -42 -18 -62 -39 -62 -65 0 -12 -4 -23 -10 -23 -5 0 -10 5 -10 11 0 16 -29 41 -40 34 -5 -3 -10 -15 -10 -25 0 -33 -22 -70 -42 -70 -10 0 -24 -11 -30 -25 -6 -14 -17 -25 -25 -25 -15 0 -18 -46 -3 -55 19 -12 10 -33 -20 -44 -20 -6 -30 -17 -30 -30 0 -15 -11 -23 -40 -32 -27 -8 -52 -27 -80 -60 -44 -53 -63 -60 -79 -30 -12 22 -61 35 -61 16 0 -7 -14 -15 -31 -19 -17 -3 -28 -10 -24 -16 3 -5 -1 -10 -9 -10 -9 0 -16 -4 -16 -9 0 -5 -17 -12 -38 -16 -21 -3 -43 -14 -50 -26 -7 -11 -8 -19 -2 -19 20 0 10 -27 -20 -54 -53 -47 -91 -65 -122 -59 -25 5 -30 1 -43 -31 -8 -20 -22 -36 -30 -36 -8 0 -15 -4 -15 -9 0 -8 -56 -25 -72 -22 -5 0 -8 -5 -8 -12 0 -7 -10 -17 -22 -22 -13 -6 -29 -25 -37 -42 -18 -41 -42 -42 -79 -3 -16 17 -33 30 -37 30 -4 0 -32 -25 -60 -56 -34 -35 -60 -55 -71 -53 -23 3 -64 -9 -64 -20 0 -4 6 -16 14 -27 19 -25 2 -51 -21 -32 -14 12 -25 3 -36 -27 -2 -6 -11 -4 -20 4 -13 10 -20 11 -31 2 -15 -13 -27 -89 -14 -93 4 -2 4 -9 -1 -16 -4 -7 -40 -15 -92 -18 -86 -6 -122 -19 -150 -51 -22 -26 -71 -68 -105 -89 -16 -11 -49 -38 -74 -61 -25 -24 -53 -43 -62 -43 -10 0 -18 -4 -18 -8 0 -5 -12 -15 -27 -23 -14 -8 -39 -26 -56 -41 -16 -16 -34 -28 -41 -28 -7 0 -41 -29 -76 -65 -36 -36 -72 -65 -80 -65 -8 0 -28 -18 -43 -40 -16 -22 -47 -50 -69 -61 -22 -11 -37 -23 -34 -26 10 -10 -15 -33 -36 -33 -11 0 -35 -15 -53 -32 -18 -18 -48 -44 -66 -57 -19 -14 -40 -33 -47 -43 -7 -10 -19 -18 -27 -18 -18 0 -105 -59 -105 -71 0 -5 -18 -18 -41 -29 -22 -12 -62 -42 -87 -68 -26 -26 -63 -55 -82 -64 -19 -9 -55 -35 -78 -57 -24 -23 -47 -41 -50 -41 -4 0 -27 -18 -52 -41 -25 -22 -61 -48 -81 -59 -19 -10 -41 -26 -48 -34 -8 -9 -17 -16 -22 -16 -4 0 -32 -22 -61 -50 -29 -27 -58 -50 -64 -50 -6 0 -19 -10 -30 -21 -10 -12 -44 -38 -74 -59 -30 -21 -64 -47 -74 -59 -11 -11 -25 -21 -33 -21 -8 0 -38 -24 -67 -52 -30 -29 -77 -69 -105 -88 -29 -19 -59 -41 -66 -47 -7 -7 -18 -13 -23 -13 -5 0 -17 -10 -28 -21 -10 -12 -39 -35 -64 -52 -25 -17 -61 -44 -81 -61 -68 -58 -114 -95 -156 -126 -24 -16 -43 -34 -43 -39 0 -8 180 -158 230 -191 12 -8 32 -22 44 -31 83 -62 163 -115 231 -152 28 -15 66 -37 85 -49 19 -11 58 -33 85 -48 28 -15 73 -40 100 -56 28 -16 91 -48 140 -71 50 -23 130 -60 179 -83 125 -58 158 -67 266 -73 68 -4 150 -20 288 -56 l194 -50 24 26 c13 14 24 30 24 34 0 5 9 9 20 9 22 0 25 -16 11 -54 -12 -31 -6 -36 92 -75 43 -17 135 -60 205 -96 163 -82 258 -112 397 -125 61 -5 147 -16 191 -24 85 -15 165 -22 369 -32 222 -11 259 -12 480 -3 267 11 431 26 506 45 32 8 92 16 135 19 44 2 117 13 164 25 47 12 110 25 140 30 89 14 182 40 219 61 25 15 44 19 68 14 19 -3 42 -1 55 6 12 7 36 16 53 20 16 4 59 15 95 23 36 9 79 21 96 26 17 6 38 10 46 10 9 0 18 4 20 9 7 20 110 71 145 71 52 0 309 101 333 131 11 14 51 29 77 29 32 0 91 33 99 55 4 8 32 22 63 31 31 9 75 29 99 46 24 16 60 34 80 40 20 6 39 13 42 17 8 10 63 47 97 64 45 24 86 64 130 128 21 31 56 72 78 92 42 36 198 137 214 137 5 0 14 6 20 14 7 8 59 33 116 57 108 44 193 105 366 260 87 79 321 315 333 338 5 9 23 30 40 47 39 38 99 112 154 186 24 32 55 71 70 87 47 49 78 121 52 121 -5 0 -14 -9 -20 -20 -9 -16 -64 -40 -95 -40 -6 0 -9 20 -6 47 2 32 -2 58 -14 80 -15 26 -15 35 -5 48 8 10 17 12 29 6 9 -5 32 -11 51 -13 32 -3 35 0 40 27 4 26 10 30 41 33 23 2 40 -2 49 -12 7 -9 19 -16 28 -16 8 0 -3 -16 -27 -36 -26 -23 -41 -45 -41 -60 0 -32 26 -21 47 20 9 17 19 33 22 36 16 13 88 109 105 140 10 19 28 45 38 57 28 31 116 226 106 235 -2 2 7 17 18 33 12 17 27 57 33 90 7 33 21 87 31 120 10 33 35 123 55 200 25 95 48 157 70 195 30 49 82 149 105 205 56 132 61 157 22 122 -10 -10 -23 -17 -28 -17 -6 0 -21 -14 -34 -30 -43 -54 -62 -69 -99 -81 -20 -7 -45 -18 -56 -25 -19 -14 -19 -14 2 -14 34 0 37 -19 8 -41 -14 -12 -25 -29 -24 -38 2 -28 0 -35 -26 -65 -18 -22 -22 -32 -14 -42 6 -7 16 -11 23 -8 13 5 29 -40 18 -51 -9 -9 -71 -5 -77 5 -10 16 -35 12 -35 -6 0 -24 -25 -10 -26 15 -1 12 -10 35 -21 49 -22 32 -19 59 8 67 10 4 19 11 19 16 0 12 -47 12 -52 -1 -1 -5 -19 -11 -38 -12 -23 -2 -42 -12 -58 -30 -13 -16 -31 -28 -39 -28 -14 0 -14 2 0 18 10 10 17 35 17 54 0 46 21 63 75 59 l43 -2 4 48 c3 32 0 51 -9 56 -22 14 -15 45 15 59 15 7 27 20 27 28 0 32 67 54 91 30 14 -14 52 -1 60 22 7 24 49 41 78 32 11 -4 33 -15 49 -26 l27 -20 11 30 c10 28 14 30 52 29 42 -2 42 -2 42 33 0 32 3 35 35 40 24 3 38 13 47 30 10 21 10 26 -1 28 -8 2 -17 11 -20 20 -11 29 -34 64 -47 73 -7 4 -35 5 -61 2 -29 -4 -48 -2 -48 4 0 6 -37 13 -82 16 -98 8 -123 24 -92 59 10 13 24 32 30 43 10 18 8 20 -15 22 -55 5 -64 4 -80 -11 -22 -20 -61 -21 -61 -2 0 8 12 24 26 37 73 66 71 57 14 86 -32 16 -57 22 -68 18 -9 -5 -26 -7 -38 -6 -14 1 -29 -10 -47 -36 -15 -21 -40 -47 -57 -57 -23 -13 -29 -23 -25 -37 10 -30 -3 -39 -35 -22 -23 11 -30 21 -30 43 0 51 -58 43 -75 -11 -4 -11 -13 -19 -21 -19 -8 0 -25 -11 -37 -25 -14 -16 -35 -26 -56 -27 -30 -3 -35 1 -41 22 -4 16 -22 34 -50 49 -43 24 -43 24 -22 41 14 12 17 21 11 31 -9 15 -5 39 13 76 8 17 8 30 0 48 -15 32 -16 102 -2 110 6 4 8 15 5 24 -3 12 3 22 19 30 39 21 47 51 30 117 -9 33 -23 65 -32 72 -13 10 -14 17 -5 42 6 17 7 30 2 30 -17 0 -8 45 16 85 18 29 25 54 25 92 0 39 4 54 17 62 21 11 22 79 2 92 -23 14 -40 -11 -33 -46 4 -24 1 -36 -11 -46 -62 -51 -65 -56 -65 -119 0 -45 4 -62 15 -66 21 -8 19 -17 -9 -30 -24 -11 -39 1 -58 49 -6 13 -14 16 -28 12 -16 -5 -20 -2 -21 17 -1 13 -1 29 0 36 2 16 -24 16 -37 -1 -6 -6 -13 -24 -17 -40 -4 -15 -11 -27 -17 -27 -21 0 -78 56 -78 77 0 22 9 27 65 35 10 2 26 15 35 30 12 23 13 31 2 45 -6 10 -16 28 -22 41 -5 12 -14 22 -20 22 -5 0 -10 4 -10 9 0 5 20 6 45 3 33 -3 45 -1 45 8 0 7 3 10 6 7 11 -11 44 13 44 32 0 10 7 24 16 31 23 20 15 74 -12 78 -16 2 -25 -5 -35 -27 -14 -31 -50 -43 -64 -21 -3 6 -2 10 2 10 13 0 31 60 28 95 -2 34 -6 35 -85 26z m-64 -256 c4 -14 4 -29 0 -32 -3 -4 -6 3 -6 13 0 11 -5 25 -12 32 -9 9 -9 12 0 12 6 0 14 -11 18 -25z m-163 -5 c14 -11 37 -20 51 -20 17 0 26 -5 26 -15 0 -13 -4 -14 -21 -4 -12 6 -34 8 -50 5 -16 -3 -29 -1 -29 4 0 6 -6 10 -14 10 -21 0 -31 21 -15 31 20 12 23 11 52 -11z m94 -104 c-4 -9 -13 -16 -22 -16 -16 0 -19 17 -9 45 6 15 8 15 22 2 8 -9 12 -23 9 -31z m-242 14 c3 -5 1 -10 -4 -10 -6 0 -11 5 -11 10 0 6 2 10 4 10 3 0 8 -4 11 -10z m320 0 c3 -5 1 -10 -4 -10 -6 0 -11 5 -11 10 0 6 2 10 4 10 3 0 8 -4 11 -10z m76 2 c14 -6 15 -9 3 -20 -8 -7 -14 -8 -14 -2 0 5 -7 10 -15 10 -8 0 -15 5 -15 10 0 11 17 12 41 2z m69 -162 c0 -5 -10 -10 -22 -10 -19 0 -20 2 -8 10 19 13 30 13 30 0z m-845 -41 c5 -24 11 -30 25 -26 20 5 37 -21 23 -33 -4 -4 -26 -11 -47 -15 -35 -6 -38 -5 -27 9 12 15 11 39 -5 80 -4 10 -1 16 9 16 9 0 18 -13 22 -31z m795 -99 c6 -11 8 -26 4 -32 -4 -6 -1 -16 7 -22 8 -6 20 -22 27 -36 10 -21 20 -25 55 -25 35 0 43 -4 55 -27 11 -24 10 -31 -12 -65 -13 -21 -27 -53 -31 -70 -6 -28 -4 -33 13 -33 22 0 36 -15 46 -47 6 -18 3 -23 -12 -23 -11 0 -25 7 -32 15 -7 8 -18 15 -24 15 -6 0 -17 9 -24 20 -15 25 -37 17 -78 -27 -17 -18 -35 -33 -41 -33 -15 0 -35 -72 -23 -84 21 -21 11 -38 -22 -34 -28 2 -34 -1 -36 -19 -2 -13 -10 -23 -18 -23 -21 0 -17 28 6 40 15 8 19 17 14 35 -5 18 -2 25 9 25 8 0 20 14 26 31 15 43 14 59 -4 59 -19 0 -19 9 0 34 8 11 15 28 15 38 0 32 38 22 45 -12 6 -25 9 -28 25 -20 10 5 29 24 41 41 l22 31 -25 22 c-14 11 -28 29 -31 39 -4 9 -13 17 -21 17 -8 0 -24 16 -36 35 -18 30 -21 44 -15 88 4 28 9 55 12 60 9 15 53 6 63 -13z m190 8 c0 -7 -5 -20 -10 -28 -9 -13 -12 -12 -25 4 -21 28 -19 36 10 36 14 0 25 -6 25 -12z m-1 -117 c-14 -4 -30 19 -22 33 3 5 12 1 20 -10 10 -13 10 -20 2 -23z m-265 -86 c-3 -7 -21 -25 -40 -40 -18 -15 -34 -33 -34 -39 0 -7 -6 -21 -14 -32 -30 -41 -12 40 23 99 32 55 34 57 52 42 9 -10 15 -23 13 -30z m-179 -45 c29 -46 34 -110 9 -110 -8 0 -22 -6 -30 -14 -7 -8 -23 -12 -34 -9 -17 5 -20 14 -20 71 0 47 5 71 17 84 23 26 30 23 58 -22z m-895 10 c0 -5 -5 -10 -11 -10 -5 0 -7 5 -4 10 3 6 8 10 11 10 2 0 4 -4 4 -10z m-2 -50 c10 -17 10 -21 -3 -26 -19 -8 -28 0 -30 26 -2 26 17 26 33 0z m-1114 -196 c20 -8 21 -30 2 -37 -18 -7 -26 1 -26 25 0 20 1 21 24 12z m527 -9 c0 -5 -12 -11 -26 -13 -18 -2 -25 1 -25 13 0 12 7 15 25 13 14 -2 26 -7 26 -13z m209 11 c0 -11 -19 -15 -25 -6 -3 5 1 10 9 10 9 0 16 -2 16 -4z m2295 -6 c8 -13 -5 -13 -25 0 -13 8 -13 10 2 10 9 0 20 -4 23 -10z m-3320 -150 c3 -5 2 -10 -4 -10 -5 0 -13 5 -16 10 -3 6 -2 10 4 10 5 0 13 -4 16 -10z m2851 -90 c18 0 39 -7 48 -15 8 -8 28 -15 45 -15 64 0 22 -66 -59 -94 -22 -7 -42 -11 -45 -8 -11 12 -4 32 21 55 l25 24 -36 -1 c-29 -1 -37 -6 -42 -24 -4 -17 -11 -22 -24 -19 -11 3 -19 0 -19 -8 0 -7 13 -15 29 -18 23 -5 30 -12 33 -34 3 -25 8 -29 48 -33 37 -4 45 -9 45 -25 0 -16 -8 -21 -37 -23 -32 -3 -38 -7 -38 -26 0 -15 -9 -27 -25 -34 -34 -16 -35 -15 -35 7 0 20 -22 34 -55 35 -33 1 -30 34 5 54 29 16 31 20 26 57 -2 22 -8 49 -11 61 -5 15 0 23 20 32 17 8 25 18 21 27 -8 23 4 49 17 36 6 -6 26 -11 43 -11z m284 -65 c0 -3 -8 -17 -17 -32 -17 -25 -17 -27 5 -41 33 -22 29 -52 -8 -52 -19 0 -30 5 -30 14 0 16 -61 30 -90 21 -37 -12 -40 6 -5 40 22 23 44 35 62 35 15 0 35 5 43 10 16 11 40 13 40 5z m360 -15 c0 -14 -35 -30 -66 -30 -26 0 -27 0 -9 20 18 20 75 28 75 10z m-803 -26 c-3 -3 -12 -4 -19 -1 -8 3 -5 6 6 6 11 1 17 -2 13 -5z m723 -34 c21 -13 0 -31 -28 -23 -18 4 -20 8 -11 19 13 16 19 17 39 4z m-720 -9 c0 -6 -4 -13 -10 -16 -5 -3 -10 1 -10 9 0 9 5 16 10 16 6 0 10 -4 10 -9z m-3632 -181 c-15 -24 -39 -33 -62 -24 -28 11 11 42 57 43 15 1 15 -2 5 -19z m-495 -42 c6 -21 2 -36 -7 -27 -10 11 -16 49 -8 49 5 0 12 -10 15 -22z m4452 -334 c10 -14 27 -35 37 -46 10 -12 18 -29 18 -38 0 -10 7 -23 15 -30 24 -20 18 -38 -23 -81 -51 -51 -97 -54 -136 -8 -23 27 -24 32 -11 45 8 9 15 19 15 24 0 5 15 13 33 18 38 10 53 52 19 52 -27 0 -42 22 -35 51 12 45 39 51 68 13z m205 -3 c0 -12 -20 -25 -27 -18 -7 7 6 27 18 27 5 0 9 -4 9 -9z m-43 -33 c-2 -7 -12 -12 -21 -10 -9 2 -15 -1 -14 -7 4 -13 -16 -15 -20 -2 -2 6 7 15 20 20 32 13 40 13 35 -1z m78 -78 c-3 -5 3 -10 14 -10 12 0 21 -7 21 -15 0 -9 -9 -15 -24 -15 -17 0 -26 -7 -30 -25 -7 -26 -49 -51 -67 -39 -5 3 -9 1 -9 -5 0 -5 6 -12 13 -15 10 -5 10 -7 0 -12 -7 -3 -13 -12 -13 -19 0 -7 -9 -15 -20 -18 -11 -3 -24 -17 -30 -31 -8 -21 -16 -26 -43 -26 -20 0 -42 -8 -55 -21 -26 -23 -80 -29 -92 -9 -5 8 -24 14 -44 13 -31 -1 -36 2 -36 22 0 13 -3 32 -7 42 -4 13 2 11 24 -9 36 -35 56 -35 73 -3 9 18 22 25 42 25 15 0 28 5 28 10 0 6 6 10 14 10 7 0 27 14 44 30 18 17 40 30 51 30 21 0 31 18 31 55 0 22 4 23 49 21 28 -2 50 0 49 3 -1 14 3 21 13 21 5 0 7 -4 4 -10z m35 -210 c0 -5 -4 -10 -10 -10 -5 0 -10 5 -10 10 0 6 5 10 10 10 6 0 10 -4 10 -10z m-357 -122 c3 -23 2 -47 -2 -53 -14 -19 -10 -58 10 -83 22 -28 25 -52 7 -52 -37 1 -59 16 -77 54 -19 40 -19 42 -2 93 17 52 37 83 51 83 4 0 10 -19 13 -42z m361 -14 c11 -27 7 -37 -9 -24 -16 14 -20 40 -6 40 5 0 12 -7 15 -16z m-843 -1006 c1 -13 1 -28 0 -34 -1 -6 6 -17 14 -24 22 -18 19 -57 -5 -70 -31 -17 -43 -2 -38 45 3 23 1 50 -4 59 -12 22 -3 46 17 46 9 0 15 -9 16 -22z m-1491 -215 c0 -29 -15 -44 -48 -48 -38 -5 -39 -2 -9 35 25 33 57 39 57 13z m541 -311 c-12 -23 -21 -52 -21 -65 0 -14 -7 -31 -17 -38 -17 -15 -18 -18 5 144 10 74 33 93 46 38 6 -30 4 -46 -13 -79z m529 38 c12 -8 9 -10 -12 -10 -16 0 -28 5 -28 10 0 13 20 13 40 0z m-1064 -81 c7 -13 -13 -47 -36 -59 -16 -9 -22 -6 -35 19 -13 26 -13 32 0 44 14 15 61 12 71 -4z m-166 -9 c0 -5 -5 -10 -11 -10 -5 0 -7 5 -4 10 3 6 8 10 11 10 2 0 4 -4 4 -10z m604 -101 c20 -12 36 -24 36 -28 0 -6 -21 -19 -82 -49 -11 -6 -20 37 -13 68 8 36 13 36 59 9z m-102 -199 c7 -11 18 -20 25 -20 22 0 14 -26 -12 -40 -14 -8 -34 -33 -44 -56 -11 -23 -28 -47 -39 -53 -11 -6 -27 -29 -36 -51 -9 -24 -22 -40 -32 -40 -17 0 -16 19 1 80 4 14 9 41 12 60 8 51 28 70 68 63 l33 -5 -8 35 c-11 50 8 66 32 27z m-688 -9 c3 -5 -1 -14 -8 -21 -8 -6 -18 -25 -21 -41 -4 -16 -13 -29 -21 -29 -18 0 -18 1 8 55 22 45 32 53 42 36z m-1686 -52 c-2 -6 -8 -10 -13 -10 -5 0 -11 4 -13 10 -2 6 4 11 13 11 9 0 15 -5 13 -11z m2066 -133 c9 -30 16 -56 16 -58 0 -2 -15 -20 -33 -40 -25 -28 -37 -34 -53 -28 -26 10 -30 68 -9 111 8 15 15 37 15 49 0 15 6 20 24 20 21 0 27 -8 40 -54z m-1904 3 c9 -15 8 -24 -1 -35 -21 -26 -39 -16 -39 21 0 40 22 48 40 14z m1492 -211 c3 -7 1 -28 -4 -45 -6 -23 -14 -33 -28 -33 -11 0 -20 -4 -20 -10 0 -5 -7 -10 -15 -10 -23 0 -18 39 11 77 26 34 48 42 56 21z m-2797 -49 c11 -17 -1 -21 -15 -4 -8 9 -8 15 -2 15 6 0 14 -5 17 -11z m2023 -114 c0 -18 -6 -25 -20 -25 -18 0 -18 1 -1 25 10 13 19 25 19 25 1 0 2 -11 2 -25z m162 -84 c0 -5 -7 -14 -15 -21 -13 -10 -15 -9 -15 9 0 12 6 21 15 21 8 0 15 -4 15 -9z m-1562 -59 c5 -31 -40 -88 -73 -94 -35 -7 -40 7 -16 38 12 15 21 37 21 50 0 40 63 46 68 6z m-520 -38 c15 -32 6 -71 -20 -85 -22 -12 -21 -12 -36 17 -17 33 4 94 33 94 6 0 17 -12 23 -26z" style="fill: rgb(255, 242, 0);"/>
    <path d="M11280 5571 c0 -12 5 -21 10 -21 6 0 10 6 10 14 0 8 -4 18 -10 21 -5 3 -10 -3 -10 -14z" style="fill: rgb(255, 242, 0);"/>
    <path d="M11339 6978 c-11 -36 5 -63 22 -37 13 21 11 39 -6 39 -8 0 -15 -1 -16 -2z" style="fill: rgb(255, 242, 0);"/>
    <path d="M10420 6781 c0 -11 5 -23 10 -26 6 -3 10 -2 10 4 0 5 3 16 6 25 4 11 1 16 -10 16 -9 0 -16 -8 -16 -19z" style="fill: rgb(255, 242, 0);"/>
    <path d="M4940 6760 c0 -5 5 -10 10 -10 6 0 10 5 10 10 0 6 -4 10 -10 10 -5 0 -10 -4 -10 -10z" style="fill: rgb(255, 242, 0);"/>
    <path d="M4595 6751 c-3 -5 -1 -12 5 -16 6 -4 8 -10 5 -15 -3 -5 0 -12 6 -15 16 -10 41 18 33 38 -7 18 -39 23 -49 8z" style="fill: rgb(255, 242, 0);"/>
    <path d="M11665 6690 c4 -6 11 -8 16 -5 14 9 11 15 -7 15 -8 0 -12 -5 -9 -10z" style="fill: rgb(255, 242, 0);"/>
    <path d="M4820 6650 c0 -5 9 -10 21 -10 11 0 17 5 14 10 -3 6 -13 10 -21 10 -8 0 -14 -4 -14 -10z" style="fill: rgb(255, 242, 0);"/>
    <path d="M4870 6415 c0 -8 4 -15 10 -15 5 0 7 7 4 15 -4 8 -8 15 -10 15 -2 0 -4 -7 -4 -15z" style="fill: rgb(255, 242, 0);"/>
    <path d="M4900 6360 c0 -5 5 -10 10 -10 6 0 10 5 10 10 0 6 -4 10 -10 10 -5 0 -10 -4 -10 -10z" style="fill: rgb(255, 242, 0);"/>
    <path d="M5878 6163 c7 -3 16 -2 19 1 4 3 -2 6 -13 5 -11 0 -14 -3 -6 -6z" style="fill: rgb(255, 242, 0);"/>
    <path d="M9010 6120 c0 -13 7 -20 19 -20 11 0 26 -3 35 -6 23 -9 20 23 -3 36 -31 16 -51 12 -51 -10z" style="fill: rgb(255, 242, 0);"/>
    <path d="M8877 6073 c6 -15 13 -16 31 -4 10 6 7 10 -11 13 -18 4 -24 1 -20 -9z" style="fill: rgb(255, 242, 0);"/>
    <path d="M11298 6024 c12 -8 20 -20 17 -25 -4 -5 1 -9 9 -9 9 0 16 4 16 9 0 25 -15 41 -38 41 l-26 0 22 -16z" style="fill: rgb(255, 242, 0);"/>
    <path d="M5615 6010 c-4 -6 -11 -7 -17 -4 -7 4 -8 2 -4 -4 7 -12 36 -5 36 9 0 12 -7 11 -15 -1z" style="fill: rgb(255, 242, 0);"/>
    <path d="M5481 5896 c-21 -38 -10 -48 27 -26 38 23 43 50 9 50 -15 0 -29 -9 -36 -24z" style="fill: rgb(255, 242, 0);"/>
    <path d="M5400 5799 c0 -5 5 -7 10 -4 6 3 10 8 10 11 0 2 -4 4 -10 4 -5 0 -10 -5 -10 -11z" style="fill: rgb(255, 242, 0);"/>
    <path d="M5441 5794 c0 -11 3 -14 6 -6 3 7 2 16 -1 19 -3 4 -6 -2 -5 -13z" style="fill: rgb(255, 242, 0);"/>
    <path d="M4536 5750 c-10 -17 -13 -30 -6 -30 10 0 34 49 27 56 -2 2 -11 -10 -21 -26z" style="fill: rgb(255, 242, 0);"/>
    <path d="M5225 5649 c-4 -6 -5 -13 -2 -16 8 -7 47 7 47 18 0 13 -37 11 -45 -2z" style="fill: rgb(255, 242, 0);"/>
    <path d="M6837 5433 c-11 -10 -8 -20 8 -27 10 -4 15 1 15 14 0 20 -11 26 -23 13z" style="fill: rgb(255, 242, 0);"/>
    <path d="M11860 5395 c0 -8 4 -15 9 -15 5 0 14 7 21 15 10 13 9 15 -9 15 -12 0 -21 -6 -21 -15z" style="fill: rgb(255, 242, 0);"/>
    <path d="M11778 5333 c6 -2 18 -2 25 0 6 3 1 5 -13 5 -14 0 -19 -2 -12 -5z" style="fill: rgb(255, 242, 0);"/>
    <path d="M3432 4003 c1 -5 -3 -18 -10 -30 -11 -19 -10 -22 2 -17 9 3 18 14 21 24 3 10 14 21 23 23 10 3 6 5 -10 6 -16 0 -27 -2 -26 -6z" style="fill: rgb(255, 242, 0);"/>
    <path d="M3395 3930 c-3 -5 1 -10 9 -10 9 0 16 5 16 10 0 6 -4 10 -9 10 -6 0 -13 -4 -16 -10z" style="fill: rgb(255, 242, 0);"/>
    <path d="M3300 1485 c0 -28 38 -92 78 -129 58 -55 153 -110 272 -158 116 -46 209 -93 285 -143 80 -54 213 -113 315 -141 168 -46 283 -76 349 -90 35 -8 67 -16 71 -19 4 -3 82 -20 171 -39 198 -42 262 -59 354 -93 188 -69 253 -90 285 -96 34 -6 35 -6 10 8 -14 8 -30 14 -37 15 -7 0 -83 32 -170 71 -111 50 -185 76 -248 89 -212 42 -413 126 -637 266 -95 59 -227 132 -293 161 -66 30 -138 62 -160 73 -91 42 -277 110 -385 140 -121 34 -168 52 -212 82 -32 22 -48 23 -48 3z" style="fill: rgb(255, 242, 0);"/>
    <path d="M0 175 l0 -175 253 0 252 0 -42 36 c-24 20 -66 60 -94 90 -41 42 -78 66 -177 115 -69 33 -132 67 -140 75 -7 8 -22 19 -33 24 -18 10 -19 5 -19 -165z" style="fill: rgb(255, 242, 0);"/>
  </g>
</svg>